M48
; DRILL file {KiCad 8.0.2} date 2024-09-17T18:28:16+0300
; FORMAT={-:-/ absolute / metric / decimal}
; #@! TF.CreationDate,2024-09-17T18:28:16+03:00
; #@! TF.GenerationSoftware,Kicad,Pcbnew,8.0.2
; #@! TF.FileFunction,Plated,1,2,PTH
FMAT,2
METRIC
; #@! TA.AperFunction,Plated,PTH,ViaDrill
T1C0.400
; #@! TA.AperFunction,Plated,PTH,ComponentDrill
T2C0.762
; #@! TA.AperFunction,Plated,PTH,ComponentDrill
T3C0.800
; #@! TA.AperFunction,Plated,PTH,ComponentDrill
T4C1.000
; #@! TA.AperFunction,Plated,PTH,ComponentDrill
T5C1.600
; #@! TA.AperFunction,Plated,PTH,ComponentDrill
T6C3.000
%
G90
G05
T1
X30.197Y-58.674
X30.197Y-67.564
X33.372Y-58.674
X33.372Y-67.564
X34.925Y-119.38
X41.021Y-48.768
X42.164Y-55.626
X42.949Y-71.905
X43.18Y-99.187
X49.0Y-61.064
X49.0Y-65.064
X49.0Y-71.064
X49.0Y-80.064
X50.8Y-100.965
X55.372Y-90.678
X56.515Y-119.38
X59.055Y-98.425
X60.071Y-90.297
X62.865Y-97.536
X62.865Y-104.14
X64.77Y-106.934
X66.929Y-104.14
X67.0Y-59.0
X67.183Y-101.473
X67.31Y-97.79
X72.39Y-107.95
X72.898Y-97.536
X73.025Y-116.205
X74.676Y-69.088
X75.565Y-104.14
X78.0Y-59.0
X78.74Y-115.57
X79.502Y-64.77
X79.502Y-73.406
X79.502Y-120.65
X80.01Y-94.615
X80.645Y-99.695
X81.915Y-104.14
X83.185Y-88.646
X86.36Y-67.31
X86.36Y-71.12
X86.36Y-118.11
X87.63Y-97.79
X87.63Y-105.41
X93.218Y-64.77
X93.218Y-73.406
X93.98Y-97.282
X96.774Y-93.472
X97.155Y-108.585
X97.79Y-69.342
X102.235Y-103.505
X102.87Y-110.49
X103.124Y-53.975
X105.537Y-62.738
X106.172Y-76.708
X107.061Y-81.28
X108.585Y-104.14
X109.093Y-68.961
X112.268Y-75.819
X112.649Y-64.516
X113.538Y-81.661
X114.808Y-89.027
X116.713Y-69.342
X116.84Y-110.49
X122.047Y-76.835
X122.047Y-91.059
X123.571Y-114.3
X125.222Y-89.789
X125.349Y-79.375
X125.857Y-100.965
X126.111Y-49.276
X126.365Y-66.802
X127.889Y-120.777
X128.895Y-97.882
X128.905Y-83.947
X128.905Y-92.329
X129.022Y-106.391
X130.048Y-73.787
X132.578Y-106.391
X132.705Y-97.882
X132.715Y-83.947
X132.715Y-92.329
T2
X55.88Y-88.265
X55.88Y-95.885
X58.42Y-88.265
X58.42Y-95.885
X60.96Y-88.265
X60.96Y-95.885
T3
X35.814Y-102.87
X35.814Y-110.49
X43.434Y-102.87
X43.434Y-110.49
X48.514Y-104.14
X48.514Y-109.14
X53.355Y-100.315
X53.355Y-110.475
X54.102Y-59.182
X54.102Y-69.342
X54.102Y-72.517
X54.102Y-77.517
X57.15Y-100.33
X57.15Y-110.49
X59.563Y-70.739
X59.563Y-80.899
X60.96Y-100.33
X60.96Y-110.49
X62.611Y-70.739
X62.611Y-80.899
X64.785Y-100.315
X64.785Y-110.475
X67.31Y-65.278
X67.31Y-69.215
X67.31Y-73.025
X69.85Y-95.25
X69.85Y-97.79
X69.85Y-100.33
X69.85Y-102.87
X69.85Y-105.41
X69.85Y-107.95
X69.85Y-110.49
X69.85Y-113.03
X72.47Y-91.694
X77.47Y-65.278
X77.47Y-69.215
X77.47Y-73.025
X77.47Y-91.694
X77.47Y-95.25
X77.47Y-97.79
X77.47Y-100.33
X77.47Y-102.87
X77.47Y-105.41
X77.47Y-107.95
X77.47Y-110.49
X77.47Y-113.03
X81.28Y-114.3
X81.28Y-118.11
X83.81Y-95.25
X83.81Y-97.79
X83.81Y-100.33
X83.81Y-102.87
X83.81Y-105.41
X83.81Y-107.95
X83.81Y-110.49
X86.44Y-91.948
X91.43Y-95.25
X91.43Y-97.79
X91.43Y-100.33
X91.43Y-102.87
X91.43Y-105.41
X91.43Y-107.95
X91.43Y-110.49
X91.44Y-91.948
X91.44Y-114.3
X91.44Y-118.11
X95.25Y-65.405
X95.25Y-69.215
X95.25Y-73.025
X98.298Y-83.058
X98.298Y-88.058
X102.235Y-83.058
X102.235Y-88.058
X105.41Y-65.405
X105.41Y-69.215
X105.41Y-73.025
X107.95Y-90.932
X107.95Y-101.092
X108.077Y-57.023
X108.077Y-60.96
X110.49Y-80.772
X111.252Y-66.755
X111.252Y-71.755
X111.252Y-90.932
X111.252Y-101.092
X113.077Y-57.023
X113.077Y-60.96
X114.3Y-66.675
X114.3Y-69.215
X114.3Y-71.755
X114.3Y-74.295
X114.3Y-77.47
X114.554Y-90.932
X114.554Y-101.092
X115.57Y-104.14
X115.57Y-107.315
X116.88Y-63.5
X119.3Y-77.47
X120.65Y-80.772
X121.88Y-63.5
X121.92Y-116.84
X121.92Y-66.675
X121.92Y-69.215
X121.92Y-71.755
X121.92Y-74.295
X124.46Y-111.76
X125.73Y-104.14
X125.73Y-107.315
X126.492Y-61.595
X126.492Y-71.755
X127.0Y-116.84
X130.048Y-61.596
X130.048Y-66.596
X130.048Y-69.469
X130.048Y-79.629
T4
X33.274Y-50.546
X33.274Y-54.384
X35.814Y-50.546
X35.814Y-54.384
X39.722Y-58.674
X39.722Y-67.564
X39.723Y-63.119
X42.262Y-58.674
X42.262Y-67.564
X42.263Y-63.119
X44.802Y-58.674
X44.802Y-67.564
X56.129Y-115.57
X58.669Y-115.57
X59.817Y-65.278
X59.817Y-67.818
X62.357Y-65.278
X62.357Y-67.818
X81.28Y-66.675
X81.28Y-69.215
X81.28Y-71.755
X83.82Y-66.675
X83.82Y-69.215
X83.82Y-71.755
X88.895Y-66.69
X88.895Y-69.23
X88.895Y-71.77
X91.435Y-66.69
X91.435Y-69.23
X91.435Y-71.77
X99.055Y-76.84
X99.055Y-79.38
X101.595Y-76.84
X101.595Y-79.38
X101.854Y-57.785
X101.854Y-60.325
X104.394Y-57.785
X104.394Y-60.325
X107.95Y-84.608
X107.95Y-87.148
X110.49Y-84.608
X110.49Y-87.148
X113.03Y-84.608
X113.03Y-87.148
T5
X76.2Y-118.11
X99.06Y-116.84
X106.68Y-116.84
X114.3Y-116.84
T6
X47.879Y-49.911
X47.879Y-117.856
T4
X30.871Y-77.562G85X30.871Y-76.562
G05
X33.271Y-75.562G85X33.271Y-74.562
G05
X38.771Y-75.562G85X38.771Y-74.562
G05
M30
