%TF.GenerationSoftware,KiCad,Pcbnew,8.0.2*%
%TF.CreationDate,2024-09-17T18:28:23+03:00*%
%TF.ProjectId,ad4080_evb_experimenter,61643430-3830-45f6-9576-625f65787065,rev?*%
%TF.SameCoordinates,Original*%
%TF.FileFunction,Drillmap*%
%TF.FilePolarity,Positive*%
%FSLAX45Y45*%
G04 Gerber Fmt 4.5, Leading zero omitted, Abs format (unit mm)*
G04 Created by KiCad (PCBNEW 8.0.2) date 2024-09-17 18:28:23*
%MOMM*%
%LPD*%
G01*
G04 APERTURE LIST*
%ADD10C,0.100000*%
%ADD11C,0.200000*%
%ADD12C,0.160000*%
%ADD13C,0.300000*%
G04 APERTURE END LIST*
D10*
X2921000Y-4452100D02*
X13360400Y-4452100D01*
X13360400Y-12319000D01*
X2921000Y-12319000D01*
X2921000Y-4452100D01*
D11*
D10*
X2999750Y-5847400D02*
X3039750Y-5887400D01*
X3039750Y-5847400D02*
X2999750Y-5887400D01*
X2999750Y-6736400D02*
X3039750Y-6776400D01*
X3039750Y-6736400D02*
X2999750Y-6776400D01*
X3317250Y-5847400D02*
X3357250Y-5887400D01*
X3357250Y-5847400D02*
X3317250Y-5887400D01*
X3317250Y-6736400D02*
X3357250Y-6776400D01*
X3357250Y-6736400D02*
X3317250Y-6776400D01*
X3472500Y-11918000D02*
X3512500Y-11958000D01*
X3512500Y-11918000D02*
X3472500Y-11958000D01*
X4082100Y-4856800D02*
X4122100Y-4896800D01*
X4122100Y-4856800D02*
X4082100Y-4896800D01*
X4196400Y-5542600D02*
X4236400Y-5582600D01*
X4236400Y-5542600D02*
X4196400Y-5582600D01*
X4274940Y-7170540D02*
X4314940Y-7210540D01*
X4314940Y-7170540D02*
X4274940Y-7210540D01*
X4298000Y-9898700D02*
X4338000Y-9938700D01*
X4338000Y-9898700D02*
X4298000Y-9938700D01*
X4880000Y-6086400D02*
X4920000Y-6126400D01*
X4920000Y-6086400D02*
X4880000Y-6126400D01*
X4880000Y-6486400D02*
X4920000Y-6526400D01*
X4920000Y-6486400D02*
X4880000Y-6526400D01*
X4880000Y-7086400D02*
X4920000Y-7126400D01*
X4920000Y-7086400D02*
X4880000Y-7126400D01*
X4880000Y-7986400D02*
X4920000Y-8026400D01*
X4920000Y-7986400D02*
X4880000Y-8026400D01*
X5060000Y-10076500D02*
X5100000Y-10116500D01*
X5100000Y-10076500D02*
X5060000Y-10116500D01*
X5517200Y-9047800D02*
X5557200Y-9087800D01*
X5557200Y-9047800D02*
X5517200Y-9087800D01*
X5631500Y-11918000D02*
X5671500Y-11958000D01*
X5671500Y-11918000D02*
X5631500Y-11958000D01*
X5885500Y-9822500D02*
X5925500Y-9862500D01*
X5925500Y-9822500D02*
X5885500Y-9862500D01*
X5987100Y-9009700D02*
X6027100Y-9049700D01*
X6027100Y-9009700D02*
X5987100Y-9049700D01*
X6266500Y-9733600D02*
X6306500Y-9773600D01*
X6306500Y-9733600D02*
X6266500Y-9773600D01*
X6266500Y-10394000D02*
X6306500Y-10434000D01*
X6306500Y-10394000D02*
X6266500Y-10434000D01*
X6457000Y-10673400D02*
X6497000Y-10713400D01*
X6497000Y-10673400D02*
X6457000Y-10713400D01*
X6672900Y-10394000D02*
X6712900Y-10434000D01*
X6712900Y-10394000D02*
X6672900Y-10434000D01*
X6680000Y-5880000D02*
X6720000Y-5920000D01*
X6720000Y-5880000D02*
X6680000Y-5920000D01*
X6698300Y-10127300D02*
X6738300Y-10167300D01*
X6738300Y-10127300D02*
X6698300Y-10167300D01*
X6711000Y-9759000D02*
X6751000Y-9799000D01*
X6751000Y-9759000D02*
X6711000Y-9799000D01*
X7219000Y-10775000D02*
X7259000Y-10815000D01*
X7259000Y-10775000D02*
X7219000Y-10815000D01*
X7269800Y-9733600D02*
X7309800Y-9773600D01*
X7309800Y-9733600D02*
X7269800Y-9773600D01*
X7282500Y-11600500D02*
X7322500Y-11640500D01*
X7322500Y-11600500D02*
X7282500Y-11640500D01*
X7447600Y-6888800D02*
X7487600Y-6928800D01*
X7487600Y-6888800D02*
X7447600Y-6928800D01*
X7536500Y-10394000D02*
X7576500Y-10434000D01*
X7576500Y-10394000D02*
X7536500Y-10434000D01*
X7780000Y-5880000D02*
X7820000Y-5920000D01*
X7820000Y-5880000D02*
X7780000Y-5920000D01*
X7854000Y-11537000D02*
X7894000Y-11577000D01*
X7894000Y-11537000D02*
X7854000Y-11577000D01*
X7930200Y-6457000D02*
X7970200Y-6497000D01*
X7970200Y-6457000D02*
X7930200Y-6497000D01*
X7930200Y-7320600D02*
X7970200Y-7360600D01*
X7970200Y-7320600D02*
X7930200Y-7360600D01*
X7930200Y-12045000D02*
X7970200Y-12085000D01*
X7970200Y-12045000D02*
X7930200Y-12085000D01*
X7981000Y-9441500D02*
X8021000Y-9481500D01*
X8021000Y-9441500D02*
X7981000Y-9481500D01*
X8044500Y-9949500D02*
X8084500Y-9989500D01*
X8084500Y-9949500D02*
X8044500Y-9989500D01*
X8171500Y-10394000D02*
X8211500Y-10434000D01*
X8211500Y-10394000D02*
X8171500Y-10434000D01*
X8298500Y-8844600D02*
X8338500Y-8884600D01*
X8338500Y-8844600D02*
X8298500Y-8884600D01*
X8616000Y-6711000D02*
X8656000Y-6751000D01*
X8656000Y-6711000D02*
X8616000Y-6751000D01*
X8616000Y-7092000D02*
X8656000Y-7132000D01*
X8656000Y-7092000D02*
X8616000Y-7132000D01*
X8616000Y-11791000D02*
X8656000Y-11831000D01*
X8656000Y-11791000D02*
X8616000Y-11831000D01*
X8743000Y-9759000D02*
X8783000Y-9799000D01*
X8783000Y-9759000D02*
X8743000Y-9799000D01*
X8743000Y-10521000D02*
X8783000Y-10561000D01*
X8783000Y-10521000D02*
X8743000Y-10561000D01*
X9301800Y-6457000D02*
X9341800Y-6497000D01*
X9341800Y-6457000D02*
X9301800Y-6497000D01*
X9301800Y-7320600D02*
X9341800Y-7360600D01*
X9341800Y-7320600D02*
X9301800Y-7360600D01*
X9378000Y-9708200D02*
X9418000Y-9748200D01*
X9418000Y-9708200D02*
X9378000Y-9748200D01*
X9657400Y-9327200D02*
X9697400Y-9367200D01*
X9697400Y-9327200D02*
X9657400Y-9367200D01*
X9695500Y-10838500D02*
X9735500Y-10878500D01*
X9735500Y-10838500D02*
X9695500Y-10878500D01*
X9759000Y-6914200D02*
X9799000Y-6954200D01*
X9799000Y-6914200D02*
X9759000Y-6954200D01*
X10203500Y-10330500D02*
X10243500Y-10370500D01*
X10243500Y-10330500D02*
X10203500Y-10370500D01*
X10267000Y-11029000D02*
X10307000Y-11069000D01*
X10307000Y-11029000D02*
X10267000Y-11069000D01*
X10292400Y-5377500D02*
X10332400Y-5417500D01*
X10332400Y-5377500D02*
X10292400Y-5417500D01*
X10533700Y-6253800D02*
X10573700Y-6293800D01*
X10573700Y-6253800D02*
X10533700Y-6293800D01*
X10597200Y-7650800D02*
X10637200Y-7690800D01*
X10637200Y-7650800D02*
X10597200Y-7690800D01*
X10686100Y-8108000D02*
X10726100Y-8148000D01*
X10726100Y-8108000D02*
X10686100Y-8148000D01*
X10838500Y-10394000D02*
X10878500Y-10434000D01*
X10878500Y-10394000D02*
X10838500Y-10434000D01*
X10889300Y-6876100D02*
X10929300Y-6916100D01*
X10929300Y-6876100D02*
X10889300Y-6916100D01*
X11206800Y-7561900D02*
X11246800Y-7601900D01*
X11246800Y-7561900D02*
X11206800Y-7601900D01*
X11244900Y-6431600D02*
X11284900Y-6471600D01*
X11284900Y-6431600D02*
X11244900Y-6471600D01*
X11333800Y-8146100D02*
X11373800Y-8186100D01*
X11373800Y-8146100D02*
X11333800Y-8186100D01*
X11460800Y-8882700D02*
X11500800Y-8922700D01*
X11500800Y-8882700D02*
X11460800Y-8922700D01*
X11651300Y-6914200D02*
X11691300Y-6954200D01*
X11691300Y-6914200D02*
X11651300Y-6954200D01*
X11664000Y-11029000D02*
X11704000Y-11069000D01*
X11704000Y-11029000D02*
X11664000Y-11069000D01*
X12184700Y-7663500D02*
X12224700Y-7703500D01*
X12224700Y-7663500D02*
X12184700Y-7703500D01*
X12184700Y-9085900D02*
X12224700Y-9125900D01*
X12224700Y-9085900D02*
X12184700Y-9125900D01*
X12337100Y-11410000D02*
X12377100Y-11450000D01*
X12377100Y-11410000D02*
X12337100Y-11450000D01*
X12502200Y-8958900D02*
X12542200Y-8998900D01*
X12542200Y-8958900D02*
X12502200Y-8998900D01*
X12514900Y-7917500D02*
X12554900Y-7957500D01*
X12554900Y-7917500D02*
X12514900Y-7957500D01*
X12565700Y-10076500D02*
X12605700Y-10116500D01*
X12605700Y-10076500D02*
X12565700Y-10116500D01*
X12591100Y-4907600D02*
X12631100Y-4947600D01*
X12631100Y-4907600D02*
X12591100Y-4947600D01*
X12616500Y-6660200D02*
X12656500Y-6700200D01*
X12656500Y-6660200D02*
X12616500Y-6700200D01*
X12768900Y-12057700D02*
X12808900Y-12097700D01*
X12808900Y-12057700D02*
X12768900Y-12097700D01*
X12869500Y-9768200D02*
X12909500Y-9808200D01*
X12909500Y-9768200D02*
X12869500Y-9808200D01*
X12870500Y-8374700D02*
X12910500Y-8414700D01*
X12910500Y-8374700D02*
X12870500Y-8414700D01*
X12870500Y-9212900D02*
X12910500Y-9252900D01*
X12910500Y-9212900D02*
X12870500Y-9252900D01*
X12882200Y-10619100D02*
X12922200Y-10659100D01*
X12922200Y-10619100D02*
X12882200Y-10659100D01*
X12984800Y-7358700D02*
X13024800Y-7398700D01*
X13024800Y-7358700D02*
X12984800Y-7398700D01*
X13237800Y-10619100D02*
X13277800Y-10659100D01*
X13277800Y-10619100D02*
X13237800Y-10659100D01*
X13250500Y-9768200D02*
X13290500Y-9808200D01*
X13290500Y-9768200D02*
X13250500Y-9808200D01*
X13251500Y-8374700D02*
X13291500Y-8414700D01*
X13291500Y-8374700D02*
X13251500Y-8414700D01*
X13251500Y-9212900D02*
X13291500Y-9252900D01*
X13291500Y-9212900D02*
X13251500Y-9252900D01*
X5626100Y-8826500D02*
G75*
G02*
X5549900Y-8826500I-38100J0D01*
G01*
X5549900Y-8826500D02*
G75*
G02*
X5626100Y-8826500I38100J0D01*
G01*
X5626100Y-9588500D02*
G75*
G02*
X5549900Y-9588500I-38100J0D01*
G01*
X5549900Y-9588500D02*
G75*
G02*
X5626100Y-9588500I38100J0D01*
G01*
X5880100Y-8826500D02*
G75*
G02*
X5803900Y-8826500I-38100J0D01*
G01*
X5803900Y-8826500D02*
G75*
G02*
X5880100Y-8826500I38100J0D01*
G01*
X5880100Y-9588500D02*
G75*
G02*
X5803900Y-9588500I-38100J0D01*
G01*
X5803900Y-9588500D02*
G75*
G02*
X5880100Y-9588500I38100J0D01*
G01*
X6134100Y-8826500D02*
G75*
G02*
X6057900Y-8826500I-38100J0D01*
G01*
X6057900Y-8826500D02*
G75*
G02*
X6134100Y-8826500I38100J0D01*
G01*
X6134100Y-9588500D02*
G75*
G02*
X6057900Y-9588500I-38100J0D01*
G01*
X6057900Y-9588500D02*
G75*
G02*
X6134100Y-9588500I38100J0D01*
G01*
X3581400Y-10247000D02*
X3581400Y-10327000D01*
X3541400Y-10287000D02*
X3621400Y-10287000D01*
X3581400Y-11009000D02*
X3581400Y-11089000D01*
X3541400Y-11049000D02*
X3621400Y-11049000D01*
X4343400Y-10247000D02*
X4343400Y-10327000D01*
X4303400Y-10287000D02*
X4383400Y-10287000D01*
X4343400Y-11009000D02*
X4343400Y-11089000D01*
X4303400Y-11049000D02*
X4383400Y-11049000D01*
X4851400Y-10374000D02*
X4851400Y-10454000D01*
X4811400Y-10414000D02*
X4891400Y-10414000D01*
X4851400Y-10874000D02*
X4851400Y-10954000D01*
X4811400Y-10914000D02*
X4891400Y-10914000D01*
X5335500Y-9991500D02*
X5335500Y-10071500D01*
X5295500Y-10031500D02*
X5375500Y-10031500D01*
X5335500Y-11007500D02*
X5335500Y-11087500D01*
X5295500Y-11047500D02*
X5375500Y-11047500D01*
X5410200Y-5878200D02*
X5410200Y-5958200D01*
X5370200Y-5918200D02*
X5450200Y-5918200D01*
X5410200Y-6894200D02*
X5410200Y-6974200D01*
X5370200Y-6934200D02*
X5450200Y-6934200D01*
X5410200Y-7211700D02*
X5410200Y-7291700D01*
X5370200Y-7251700D02*
X5450200Y-7251700D01*
X5410200Y-7711700D02*
X5410200Y-7791700D01*
X5370200Y-7751700D02*
X5450200Y-7751700D01*
X5715000Y-9993000D02*
X5715000Y-10073000D01*
X5675000Y-10033000D02*
X5755000Y-10033000D01*
X5715000Y-11009000D02*
X5715000Y-11089000D01*
X5675000Y-11049000D02*
X5755000Y-11049000D01*
X5956300Y-7033900D02*
X5956300Y-7113900D01*
X5916300Y-7073900D02*
X5996300Y-7073900D01*
X5956300Y-8049900D02*
X5956300Y-8129900D01*
X5916300Y-8089900D02*
X5996300Y-8089900D01*
X6096000Y-9993000D02*
X6096000Y-10073000D01*
X6056000Y-10033000D02*
X6136000Y-10033000D01*
X6096000Y-11009000D02*
X6096000Y-11089000D01*
X6056000Y-11049000D02*
X6136000Y-11049000D01*
X6261100Y-7033900D02*
X6261100Y-7113900D01*
X6221100Y-7073900D02*
X6301100Y-7073900D01*
X6261100Y-8049900D02*
X6261100Y-8129900D01*
X6221100Y-8089900D02*
X6301100Y-8089900D01*
X6478500Y-9991500D02*
X6478500Y-10071500D01*
X6438500Y-10031500D02*
X6518500Y-10031500D01*
X6478500Y-11007500D02*
X6478500Y-11087500D01*
X6438500Y-11047500D02*
X6518500Y-11047500D01*
X6731000Y-6487800D02*
X6731000Y-6567800D01*
X6691000Y-6527800D02*
X6771000Y-6527800D01*
X6731000Y-6881500D02*
X6731000Y-6961500D01*
X6691000Y-6921500D02*
X6771000Y-6921500D01*
X6731000Y-7262500D02*
X6731000Y-7342500D01*
X6691000Y-7302500D02*
X6771000Y-7302500D01*
X6985000Y-9485000D02*
X6985000Y-9565000D01*
X6945000Y-9525000D02*
X7025000Y-9525000D01*
X6985000Y-9739000D02*
X6985000Y-9819000D01*
X6945000Y-9779000D02*
X7025000Y-9779000D01*
X6985000Y-9993000D02*
X6985000Y-10073000D01*
X6945000Y-10033000D02*
X7025000Y-10033000D01*
X6985000Y-10247000D02*
X6985000Y-10327000D01*
X6945000Y-10287000D02*
X7025000Y-10287000D01*
X6985000Y-10501000D02*
X6985000Y-10581000D01*
X6945000Y-10541000D02*
X7025000Y-10541000D01*
X6985000Y-10755000D02*
X6985000Y-10835000D01*
X6945000Y-10795000D02*
X7025000Y-10795000D01*
X6985000Y-11009000D02*
X6985000Y-11089000D01*
X6945000Y-11049000D02*
X7025000Y-11049000D01*
X6985000Y-11263000D02*
X6985000Y-11343000D01*
X6945000Y-11303000D02*
X7025000Y-11303000D01*
X7247000Y-9129400D02*
X7247000Y-9209400D01*
X7207000Y-9169400D02*
X7287000Y-9169400D01*
X7747000Y-6487800D02*
X7747000Y-6567800D01*
X7707000Y-6527800D02*
X7787000Y-6527800D01*
X7747000Y-6881500D02*
X7747000Y-6961500D01*
X7707000Y-6921500D02*
X7787000Y-6921500D01*
X7747000Y-7262500D02*
X7747000Y-7342500D01*
X7707000Y-7302500D02*
X7787000Y-7302500D01*
X7747000Y-9129400D02*
X7747000Y-9209400D01*
X7707000Y-9169400D02*
X7787000Y-9169400D01*
X7747000Y-9485000D02*
X7747000Y-9565000D01*
X7707000Y-9525000D02*
X7787000Y-9525000D01*
X7747000Y-9739000D02*
X7747000Y-9819000D01*
X7707000Y-9779000D02*
X7787000Y-9779000D01*
X7747000Y-9993000D02*
X7747000Y-10073000D01*
X7707000Y-10033000D02*
X7787000Y-10033000D01*
X7747000Y-10247000D02*
X7747000Y-10327000D01*
X7707000Y-10287000D02*
X7787000Y-10287000D01*
X7747000Y-10501000D02*
X7747000Y-10581000D01*
X7707000Y-10541000D02*
X7787000Y-10541000D01*
X7747000Y-10755000D02*
X7747000Y-10835000D01*
X7707000Y-10795000D02*
X7787000Y-10795000D01*
X7747000Y-11009000D02*
X7747000Y-11089000D01*
X7707000Y-11049000D02*
X7787000Y-11049000D01*
X7747000Y-11263000D02*
X7747000Y-11343000D01*
X7707000Y-11303000D02*
X7787000Y-11303000D01*
X8128000Y-11390000D02*
X8128000Y-11470000D01*
X8088000Y-11430000D02*
X8168000Y-11430000D01*
X8128000Y-11771000D02*
X8128000Y-11851000D01*
X8088000Y-11811000D02*
X8168000Y-11811000D01*
X8381000Y-9485000D02*
X8381000Y-9565000D01*
X8341000Y-9525000D02*
X8421000Y-9525000D01*
X8381000Y-9739000D02*
X8381000Y-9819000D01*
X8341000Y-9779000D02*
X8421000Y-9779000D01*
X8381000Y-9993000D02*
X8381000Y-10073000D01*
X8341000Y-10033000D02*
X8421000Y-10033000D01*
X8381000Y-10247000D02*
X8381000Y-10327000D01*
X8341000Y-10287000D02*
X8421000Y-10287000D01*
X8381000Y-10501000D02*
X8381000Y-10581000D01*
X8341000Y-10541000D02*
X8421000Y-10541000D01*
X8381000Y-10755000D02*
X8381000Y-10835000D01*
X8341000Y-10795000D02*
X8421000Y-10795000D01*
X8381000Y-11009000D02*
X8381000Y-11089000D01*
X8341000Y-11049000D02*
X8421000Y-11049000D01*
X8644000Y-9154800D02*
X8644000Y-9234800D01*
X8604000Y-9194800D02*
X8684000Y-9194800D01*
X9143000Y-9485000D02*
X9143000Y-9565000D01*
X9103000Y-9525000D02*
X9183000Y-9525000D01*
X9143000Y-9739000D02*
X9143000Y-9819000D01*
X9103000Y-9779000D02*
X9183000Y-9779000D01*
X9143000Y-9993000D02*
X9143000Y-10073000D01*
X9103000Y-10033000D02*
X9183000Y-10033000D01*
X9143000Y-10247000D02*
X9143000Y-10327000D01*
X9103000Y-10287000D02*
X9183000Y-10287000D01*
X9143000Y-10501000D02*
X9143000Y-10581000D01*
X9103000Y-10541000D02*
X9183000Y-10541000D01*
X9143000Y-10755000D02*
X9143000Y-10835000D01*
X9103000Y-10795000D02*
X9183000Y-10795000D01*
X9143000Y-11009000D02*
X9143000Y-11089000D01*
X9103000Y-11049000D02*
X9183000Y-11049000D01*
X9144000Y-9154800D02*
X9144000Y-9234800D01*
X9104000Y-9194800D02*
X9184000Y-9194800D01*
X9144000Y-11390000D02*
X9144000Y-11470000D01*
X9104000Y-11430000D02*
X9184000Y-11430000D01*
X9144000Y-11771000D02*
X9144000Y-11851000D01*
X9104000Y-11811000D02*
X9184000Y-11811000D01*
X9525000Y-6500500D02*
X9525000Y-6580500D01*
X9485000Y-6540500D02*
X9565000Y-6540500D01*
X9525000Y-6881500D02*
X9525000Y-6961500D01*
X9485000Y-6921500D02*
X9565000Y-6921500D01*
X9525000Y-7262500D02*
X9525000Y-7342500D01*
X9485000Y-7302500D02*
X9565000Y-7302500D01*
X9829800Y-8265800D02*
X9829800Y-8345800D01*
X9789800Y-8305800D02*
X9869800Y-8305800D01*
X9829800Y-8765800D02*
X9829800Y-8845800D01*
X9789800Y-8805800D02*
X9869800Y-8805800D01*
X10223500Y-8265800D02*
X10223500Y-8345800D01*
X10183500Y-8305800D02*
X10263500Y-8305800D01*
X10223500Y-8765800D02*
X10223500Y-8845800D01*
X10183500Y-8805800D02*
X10263500Y-8805800D01*
X10541000Y-6500500D02*
X10541000Y-6580500D01*
X10501000Y-6540500D02*
X10581000Y-6540500D01*
X10541000Y-6881500D02*
X10541000Y-6961500D01*
X10501000Y-6921500D02*
X10581000Y-6921500D01*
X10541000Y-7262500D02*
X10541000Y-7342500D01*
X10501000Y-7302500D02*
X10581000Y-7302500D01*
X10795000Y-9053200D02*
X10795000Y-9133200D01*
X10755000Y-9093200D02*
X10835000Y-9093200D01*
X10795000Y-10069200D02*
X10795000Y-10149200D01*
X10755000Y-10109200D02*
X10835000Y-10109200D01*
X10807700Y-5662300D02*
X10807700Y-5742300D01*
X10767700Y-5702300D02*
X10847700Y-5702300D01*
X10807700Y-6056000D02*
X10807700Y-6136000D01*
X10767700Y-6096000D02*
X10847700Y-6096000D01*
X11049000Y-8037200D02*
X11049000Y-8117200D01*
X11009000Y-8077200D02*
X11089000Y-8077200D01*
X11125200Y-6635500D02*
X11125200Y-6715500D01*
X11085200Y-6675500D02*
X11165200Y-6675500D01*
X11125200Y-7135500D02*
X11125200Y-7215500D01*
X11085200Y-7175500D02*
X11165200Y-7175500D01*
X11125200Y-9053200D02*
X11125200Y-9133200D01*
X11085200Y-9093200D02*
X11165200Y-9093200D01*
X11125200Y-10069200D02*
X11125200Y-10149200D01*
X11085200Y-10109200D02*
X11165200Y-10109200D01*
X11307700Y-5662300D02*
X11307700Y-5742300D01*
X11267700Y-5702300D02*
X11347700Y-5702300D01*
X11307700Y-6056000D02*
X11307700Y-6136000D01*
X11267700Y-6096000D02*
X11347700Y-6096000D01*
X11430000Y-6627500D02*
X11430000Y-6707500D01*
X11390000Y-6667500D02*
X11470000Y-6667500D01*
X11430000Y-6881500D02*
X11430000Y-6961500D01*
X11390000Y-6921500D02*
X11470000Y-6921500D01*
X11430000Y-7135500D02*
X11430000Y-7215500D01*
X11390000Y-7175500D02*
X11470000Y-7175500D01*
X11430000Y-7389500D02*
X11430000Y-7469500D01*
X11390000Y-7429500D02*
X11470000Y-7429500D01*
X11430000Y-7707000D02*
X11430000Y-7787000D01*
X11390000Y-7747000D02*
X11470000Y-7747000D01*
X11455400Y-9053200D02*
X11455400Y-9133200D01*
X11415400Y-9093200D02*
X11495400Y-9093200D01*
X11455400Y-10069200D02*
X11455400Y-10149200D01*
X11415400Y-10109200D02*
X11495400Y-10109200D01*
X11557000Y-10374000D02*
X11557000Y-10454000D01*
X11517000Y-10414000D02*
X11597000Y-10414000D01*
X11557000Y-10691500D02*
X11557000Y-10771500D01*
X11517000Y-10731500D02*
X11597000Y-10731500D01*
X11688000Y-6310000D02*
X11688000Y-6390000D01*
X11648000Y-6350000D02*
X11728000Y-6350000D01*
X11930000Y-7707000D02*
X11930000Y-7787000D01*
X11890000Y-7747000D02*
X11970000Y-7747000D01*
X12065000Y-8037200D02*
X12065000Y-8117200D01*
X12025000Y-8077200D02*
X12105000Y-8077200D01*
X12188000Y-6310000D02*
X12188000Y-6390000D01*
X12148000Y-6350000D02*
X12228000Y-6350000D01*
X12192000Y-11644000D02*
X12192000Y-11724000D01*
X12152000Y-11684000D02*
X12232000Y-11684000D01*
X12192000Y-6627500D02*
X12192000Y-6707500D01*
X12152000Y-6667500D02*
X12232000Y-6667500D01*
X12192000Y-6881500D02*
X12192000Y-6961500D01*
X12152000Y-6921500D02*
X12232000Y-6921500D01*
X12192000Y-7135500D02*
X12192000Y-7215500D01*
X12152000Y-7175500D02*
X12232000Y-7175500D01*
X12192000Y-7389500D02*
X12192000Y-7469500D01*
X12152000Y-7429500D02*
X12232000Y-7429500D01*
X12446000Y-11136000D02*
X12446000Y-11216000D01*
X12406000Y-11176000D02*
X12486000Y-11176000D01*
X12573000Y-10374000D02*
X12573000Y-10454000D01*
X12533000Y-10414000D02*
X12613000Y-10414000D01*
X12573000Y-10691500D02*
X12573000Y-10771500D01*
X12533000Y-10731500D02*
X12613000Y-10731500D01*
X12649200Y-6119500D02*
X12649200Y-6199500D01*
X12609200Y-6159500D02*
X12689200Y-6159500D01*
X12649200Y-7135500D02*
X12649200Y-7215500D01*
X12609200Y-7175500D02*
X12689200Y-7175500D01*
X12700000Y-11644000D02*
X12700000Y-11724000D01*
X12660000Y-11684000D02*
X12740000Y-11684000D01*
X13004800Y-6119600D02*
X13004800Y-6199600D01*
X12964800Y-6159600D02*
X13044800Y-6159600D01*
X13004800Y-6619600D02*
X13004800Y-6699600D01*
X12964800Y-6659600D02*
X13044800Y-6659600D01*
X13004800Y-6906900D02*
X13004800Y-6986900D01*
X12964800Y-6946900D02*
X13044800Y-6946900D01*
X13004800Y-7922900D02*
X13004800Y-8002900D01*
X12964800Y-7962900D02*
X13044800Y-7962900D01*
X3122456Y-7741556D02*
X3122456Y-7670844D01*
X3051744Y-7670844D01*
X3051744Y-7741556D01*
X3122456Y-7741556D01*
X3137100Y-7756200D02*
X3137100Y-7656200D01*
X3037100Y-7656200D02*
G75*
G02*
X3137100Y-7656200I50000J0D01*
G01*
X3037100Y-7656200D02*
X3037100Y-7756200D01*
X3037100Y-7756200D02*
G75*
G03*
X3137100Y-7756200I50000J0D01*
G01*
X3362456Y-7541556D02*
X3362456Y-7470844D01*
X3291744Y-7470844D01*
X3291744Y-7541556D01*
X3362456Y-7541556D01*
X3377100Y-7556200D02*
X3377100Y-7456200D01*
X3277100Y-7456200D02*
G75*
G02*
X3377100Y-7456200I50000J0D01*
G01*
X3277100Y-7456200D02*
X3277100Y-7556200D01*
X3277100Y-7556200D02*
G75*
G03*
X3377100Y-7556200I50000J0D01*
G01*
X3362756Y-5089956D02*
X3362756Y-5019244D01*
X3292044Y-5019244D01*
X3292044Y-5089956D01*
X3362756Y-5089956D01*
X3362756Y-5473806D02*
X3362756Y-5403094D01*
X3292044Y-5403094D01*
X3292044Y-5473806D01*
X3362756Y-5473806D01*
X3616756Y-5089956D02*
X3616756Y-5019244D01*
X3546044Y-5019244D01*
X3546044Y-5089956D01*
X3616756Y-5089956D01*
X3616756Y-5473806D02*
X3616756Y-5403094D01*
X3546044Y-5403094D01*
X3546044Y-5473806D01*
X3616756Y-5473806D01*
X3912456Y-7541556D02*
X3912456Y-7470844D01*
X3841744Y-7470844D01*
X3841744Y-7541556D01*
X3912456Y-7541556D01*
X3927100Y-7556200D02*
X3927100Y-7456200D01*
X3827100Y-7456200D02*
G75*
G02*
X3927100Y-7456200I50000J0D01*
G01*
X3827100Y-7456200D02*
X3827100Y-7556200D01*
X3827100Y-7556200D02*
G75*
G03*
X3927100Y-7556200I50000J0D01*
G01*
X4007606Y-5902756D02*
X4007606Y-5832044D01*
X3936894Y-5832044D01*
X3936894Y-5902756D01*
X4007606Y-5902756D01*
X4007606Y-6791756D02*
X4007606Y-6721044D01*
X3936894Y-6721044D01*
X3936894Y-6791756D01*
X4007606Y-6791756D01*
X4007606Y-6347256D02*
X4007606Y-6276544D01*
X3936894Y-6276544D01*
X3936894Y-6347256D01*
X4007606Y-6347256D01*
X4261606Y-5902756D02*
X4261606Y-5832044D01*
X4190894Y-5832044D01*
X4190894Y-5902756D01*
X4261606Y-5902756D01*
X4261606Y-6791756D02*
X4261606Y-6721044D01*
X4190894Y-6721044D01*
X4190894Y-6791756D01*
X4261606Y-6791756D01*
X4261606Y-6347256D02*
X4261606Y-6276544D01*
X4190894Y-6276544D01*
X4190894Y-6347256D01*
X4261606Y-6347256D01*
X4515606Y-5902756D02*
X4515606Y-5832044D01*
X4444894Y-5832044D01*
X4444894Y-5902756D01*
X4515606Y-5902756D01*
X4515606Y-6791756D02*
X4515606Y-6721044D01*
X4444894Y-6721044D01*
X4444894Y-6791756D01*
X4515606Y-6791756D01*
X5648256Y-11592356D02*
X5648256Y-11521644D01*
X5577544Y-11521644D01*
X5577544Y-11592356D01*
X5648256Y-11592356D01*
X5902256Y-11592356D02*
X5902256Y-11521644D01*
X5831544Y-11521644D01*
X5831544Y-11592356D01*
X5902256Y-11592356D01*
X6017055Y-6563156D02*
X6017055Y-6492444D01*
X5946344Y-6492444D01*
X5946344Y-6563156D01*
X6017055Y-6563156D01*
X6017055Y-6817156D02*
X6017055Y-6746444D01*
X5946344Y-6746444D01*
X5946344Y-6817156D01*
X6017055Y-6817156D01*
X6271055Y-6563156D02*
X6271055Y-6492444D01*
X6200344Y-6492444D01*
X6200344Y-6563156D01*
X6271055Y-6563156D01*
X6271055Y-6817156D02*
X6271055Y-6746444D01*
X6200344Y-6746444D01*
X6200344Y-6817156D01*
X6271055Y-6817156D01*
X8163356Y-6702855D02*
X8163356Y-6632144D01*
X8092644Y-6632144D01*
X8092644Y-6702855D01*
X8163356Y-6702855D01*
X8163356Y-6956855D02*
X8163356Y-6886144D01*
X8092644Y-6886144D01*
X8092644Y-6956855D01*
X8163356Y-6956855D01*
X8163356Y-7210855D02*
X8163356Y-7140144D01*
X8092644Y-7140144D01*
X8092644Y-7210855D01*
X8163356Y-7210855D01*
X8417356Y-6702855D02*
X8417356Y-6632144D01*
X8346644Y-6632144D01*
X8346644Y-6702855D01*
X8417356Y-6702855D01*
X8417356Y-6956855D02*
X8417356Y-6886144D01*
X8346644Y-6886144D01*
X8346644Y-6956855D01*
X8417356Y-6956855D01*
X8417356Y-7210855D02*
X8417356Y-7140144D01*
X8346644Y-7140144D01*
X8346644Y-7210855D01*
X8417356Y-7210855D01*
X8924856Y-6704355D02*
X8924856Y-6633644D01*
X8854144Y-6633644D01*
X8854144Y-6704355D01*
X8924856Y-6704355D01*
X8924856Y-6958355D02*
X8924856Y-6887644D01*
X8854144Y-6887644D01*
X8854144Y-6958355D01*
X8924856Y-6958355D01*
X8924856Y-7212355D02*
X8924856Y-7141644D01*
X8854144Y-7141644D01*
X8854144Y-7212355D01*
X8924856Y-7212355D01*
X9178856Y-6704355D02*
X9178856Y-6633644D01*
X9108144Y-6633644D01*
X9108144Y-6704355D01*
X9178856Y-6704355D01*
X9178856Y-6958355D02*
X9178856Y-6887644D01*
X9108144Y-6887644D01*
X9108144Y-6958355D01*
X9178856Y-6958355D01*
X9178856Y-7212355D02*
X9178856Y-7141644D01*
X9108144Y-7141644D01*
X9108144Y-7212355D01*
X9178856Y-7212355D01*
X9940856Y-7719356D02*
X9940856Y-7648644D01*
X9870144Y-7648644D01*
X9870144Y-7719356D01*
X9940856Y-7719356D01*
X9940856Y-7973356D02*
X9940856Y-7902644D01*
X9870144Y-7902644D01*
X9870144Y-7973356D01*
X9940856Y-7973356D01*
X10194856Y-7719356D02*
X10194856Y-7648644D01*
X10124144Y-7648644D01*
X10124144Y-7719356D01*
X10194856Y-7719356D01*
X10194856Y-7973356D02*
X10194856Y-7902644D01*
X10124144Y-7902644D01*
X10124144Y-7973356D01*
X10194856Y-7973356D01*
X10220756Y-5813856D02*
X10220756Y-5743144D01*
X10150044Y-5743144D01*
X10150044Y-5813856D01*
X10220756Y-5813856D01*
X10220756Y-6067856D02*
X10220756Y-5997144D01*
X10150044Y-5997144D01*
X10150044Y-6067856D01*
X10220756Y-6067856D01*
X10474756Y-5813856D02*
X10474756Y-5743144D01*
X10404044Y-5743144D01*
X10404044Y-5813856D01*
X10474756Y-5813856D01*
X10474756Y-6067856D02*
X10474756Y-5997144D01*
X10404044Y-5997144D01*
X10404044Y-6067856D01*
X10474756Y-6067856D01*
X10830356Y-8496199D02*
X10830356Y-8425488D01*
X10759644Y-8425488D01*
X10759644Y-8496199D01*
X10830356Y-8496199D01*
X10830356Y-8750199D02*
X10830356Y-8679488D01*
X10759644Y-8679488D01*
X10759644Y-8750199D01*
X10830356Y-8750199D01*
X11084356Y-8496199D02*
X11084356Y-8425488D01*
X11013644Y-8425488D01*
X11013644Y-8496199D01*
X11084356Y-8496199D01*
X11084356Y-8750199D02*
X11084356Y-8679488D01*
X11013644Y-8679488D01*
X11013644Y-8750199D01*
X11084356Y-8750199D01*
X11338356Y-8496199D02*
X11338356Y-8425488D01*
X11267644Y-8425488D01*
X11267644Y-8496199D01*
X11338356Y-8496199D01*
X11338356Y-8750199D02*
X11338356Y-8679488D01*
X11267644Y-8679488D01*
X11267644Y-8750199D01*
X11338356Y-8750199D01*
D12*
X7620000Y-11891000D02*
X7700000Y-11811000D01*
X7620000Y-11731000D01*
X7540000Y-11811000D01*
X7620000Y-11891000D01*
X9906000Y-11764000D02*
X9986000Y-11684000D01*
X9906000Y-11604000D01*
X9826000Y-11684000D01*
X9906000Y-11764000D01*
X10668000Y-11764000D02*
X10748000Y-11684000D01*
X10668000Y-11604000D01*
X10588000Y-11684000D01*
X10668000Y-11764000D01*
X11430000Y-11764000D02*
X11510000Y-11684000D01*
X11430000Y-11604000D01*
X11350000Y-11684000D01*
X11430000Y-11764000D01*
D13*
X4637900Y-4841100D02*
X4937900Y-5141100D01*
X4937900Y-4841100D02*
X4637900Y-5141100D01*
X4937900Y-4991100D02*
G75*
G02*
X4637900Y-4991100I-150000J0D01*
G01*
X4637900Y-4991100D02*
G75*
G02*
X4937900Y-4991100I150000J0D01*
G01*
X4637900Y-11635600D02*
X4937900Y-11935600D01*
X4937900Y-11635600D02*
X4637900Y-11935600D01*
X4937900Y-11785600D02*
G75*
G02*
X4637900Y-11785600I-150000J0D01*
G01*
X4637900Y-11785600D02*
G75*
G02*
X4937900Y-11785600I150000J0D01*
G01*
D11*
X3176777Y-12635484D02*
X3176777Y-12435484D01*
X3176777Y-12435484D02*
X3224396Y-12435484D01*
X3224396Y-12435484D02*
X3252967Y-12445008D01*
X3252967Y-12445008D02*
X3272015Y-12464055D01*
X3272015Y-12464055D02*
X3281539Y-12483103D01*
X3281539Y-12483103D02*
X3291062Y-12521198D01*
X3291062Y-12521198D02*
X3291062Y-12549769D01*
X3291062Y-12549769D02*
X3281539Y-12587865D01*
X3281539Y-12587865D02*
X3272015Y-12606912D01*
X3272015Y-12606912D02*
X3252967Y-12625960D01*
X3252967Y-12625960D02*
X3224396Y-12635484D01*
X3224396Y-12635484D02*
X3176777Y-12635484D01*
X3376777Y-12635484D02*
X3376777Y-12502150D01*
X3376777Y-12540246D02*
X3386301Y-12521198D01*
X3386301Y-12521198D02*
X3395824Y-12511674D01*
X3395824Y-12511674D02*
X3414872Y-12502150D01*
X3414872Y-12502150D02*
X3433920Y-12502150D01*
X3500586Y-12635484D02*
X3500586Y-12502150D01*
X3500586Y-12435484D02*
X3491062Y-12445008D01*
X3491062Y-12445008D02*
X3500586Y-12454531D01*
X3500586Y-12454531D02*
X3510110Y-12445008D01*
X3510110Y-12445008D02*
X3500586Y-12435484D01*
X3500586Y-12435484D02*
X3500586Y-12454531D01*
X3624396Y-12635484D02*
X3605348Y-12625960D01*
X3605348Y-12625960D02*
X3595824Y-12606912D01*
X3595824Y-12606912D02*
X3595824Y-12435484D01*
X3729158Y-12635484D02*
X3710110Y-12625960D01*
X3710110Y-12625960D02*
X3700586Y-12606912D01*
X3700586Y-12606912D02*
X3700586Y-12435484D01*
X3957729Y-12635484D02*
X3957729Y-12435484D01*
X3957729Y-12435484D02*
X4024396Y-12578341D01*
X4024396Y-12578341D02*
X4091062Y-12435484D01*
X4091062Y-12435484D02*
X4091062Y-12635484D01*
X4272015Y-12635484D02*
X4272015Y-12530722D01*
X4272015Y-12530722D02*
X4262491Y-12511674D01*
X4262491Y-12511674D02*
X4243444Y-12502150D01*
X4243444Y-12502150D02*
X4205348Y-12502150D01*
X4205348Y-12502150D02*
X4186301Y-12511674D01*
X4272015Y-12625960D02*
X4252967Y-12635484D01*
X4252967Y-12635484D02*
X4205348Y-12635484D01*
X4205348Y-12635484D02*
X4186301Y-12625960D01*
X4186301Y-12625960D02*
X4176777Y-12606912D01*
X4176777Y-12606912D02*
X4176777Y-12587865D01*
X4176777Y-12587865D02*
X4186301Y-12568817D01*
X4186301Y-12568817D02*
X4205348Y-12559293D01*
X4205348Y-12559293D02*
X4252967Y-12559293D01*
X4252967Y-12559293D02*
X4272015Y-12549769D01*
X4367253Y-12502150D02*
X4367253Y-12702150D01*
X4367253Y-12511674D02*
X4386301Y-12502150D01*
X4386301Y-12502150D02*
X4424396Y-12502150D01*
X4424396Y-12502150D02*
X4443444Y-12511674D01*
X4443444Y-12511674D02*
X4452967Y-12521198D01*
X4452967Y-12521198D02*
X4462491Y-12540246D01*
X4462491Y-12540246D02*
X4462491Y-12597388D01*
X4462491Y-12597388D02*
X4452967Y-12616436D01*
X4452967Y-12616436D02*
X4443444Y-12625960D01*
X4443444Y-12625960D02*
X4424396Y-12635484D01*
X4424396Y-12635484D02*
X4386301Y-12635484D01*
X4386301Y-12635484D02*
X4367253Y-12625960D01*
X4548205Y-12616436D02*
X4557729Y-12625960D01*
X4557729Y-12625960D02*
X4548205Y-12635484D01*
X4548205Y-12635484D02*
X4538682Y-12625960D01*
X4538682Y-12625960D02*
X4548205Y-12616436D01*
X4548205Y-12616436D02*
X4548205Y-12635484D01*
X4548205Y-12511674D02*
X4557729Y-12521198D01*
X4557729Y-12521198D02*
X4548205Y-12530722D01*
X4548205Y-12530722D02*
X4538682Y-12521198D01*
X4538682Y-12521198D02*
X4548205Y-12511674D01*
X4548205Y-12511674D02*
X4548205Y-12530722D01*
D10*
X2876000Y-12944000D02*
X2916000Y-12984000D01*
X2916000Y-12944000D02*
X2876000Y-12984000D01*
D11*
X3214872Y-12855484D02*
X3233920Y-12855484D01*
X3233920Y-12855484D02*
X3252967Y-12865008D01*
X3252967Y-12865008D02*
X3262491Y-12874531D01*
X3262491Y-12874531D02*
X3272015Y-12893579D01*
X3272015Y-12893579D02*
X3281539Y-12931674D01*
X3281539Y-12931674D02*
X3281539Y-12979293D01*
X3281539Y-12979293D02*
X3272015Y-13017388D01*
X3272015Y-13017388D02*
X3262491Y-13036436D01*
X3262491Y-13036436D02*
X3252967Y-13045960D01*
X3252967Y-13045960D02*
X3233920Y-13055484D01*
X3233920Y-13055484D02*
X3214872Y-13055484D01*
X3214872Y-13055484D02*
X3195824Y-13045960D01*
X3195824Y-13045960D02*
X3186301Y-13036436D01*
X3186301Y-13036436D02*
X3176777Y-13017388D01*
X3176777Y-13017388D02*
X3167253Y-12979293D01*
X3167253Y-12979293D02*
X3167253Y-12931674D01*
X3167253Y-12931674D02*
X3176777Y-12893579D01*
X3176777Y-12893579D02*
X3186301Y-12874531D01*
X3186301Y-12874531D02*
X3195824Y-12865008D01*
X3195824Y-12865008D02*
X3214872Y-12855484D01*
X3367253Y-13036436D02*
X3376777Y-13045960D01*
X3376777Y-13045960D02*
X3367253Y-13055484D01*
X3367253Y-13055484D02*
X3357729Y-13045960D01*
X3357729Y-13045960D02*
X3367253Y-13036436D01*
X3367253Y-13036436D02*
X3367253Y-13055484D01*
X3548205Y-12922150D02*
X3548205Y-13055484D01*
X3500586Y-12845960D02*
X3452967Y-12988817D01*
X3452967Y-12988817D02*
X3576777Y-12988817D01*
X3691062Y-12855484D02*
X3710110Y-12855484D01*
X3710110Y-12855484D02*
X3729158Y-12865008D01*
X3729158Y-12865008D02*
X3738682Y-12874531D01*
X3738682Y-12874531D02*
X3748205Y-12893579D01*
X3748205Y-12893579D02*
X3757729Y-12931674D01*
X3757729Y-12931674D02*
X3757729Y-12979293D01*
X3757729Y-12979293D02*
X3748205Y-13017388D01*
X3748205Y-13017388D02*
X3738682Y-13036436D01*
X3738682Y-13036436D02*
X3729158Y-13045960D01*
X3729158Y-13045960D02*
X3710110Y-13055484D01*
X3710110Y-13055484D02*
X3691062Y-13055484D01*
X3691062Y-13055484D02*
X3672015Y-13045960D01*
X3672015Y-13045960D02*
X3662491Y-13036436D01*
X3662491Y-13036436D02*
X3652967Y-13017388D01*
X3652967Y-13017388D02*
X3643443Y-12979293D01*
X3643443Y-12979293D02*
X3643443Y-12931674D01*
X3643443Y-12931674D02*
X3652967Y-12893579D01*
X3652967Y-12893579D02*
X3662491Y-12874531D01*
X3662491Y-12874531D02*
X3672015Y-12865008D01*
X3672015Y-12865008D02*
X3691062Y-12855484D01*
X3881539Y-12855484D02*
X3900586Y-12855484D01*
X3900586Y-12855484D02*
X3919634Y-12865008D01*
X3919634Y-12865008D02*
X3929158Y-12874531D01*
X3929158Y-12874531D02*
X3938682Y-12893579D01*
X3938682Y-12893579D02*
X3948205Y-12931674D01*
X3948205Y-12931674D02*
X3948205Y-12979293D01*
X3948205Y-12979293D02*
X3938682Y-13017388D01*
X3938682Y-13017388D02*
X3929158Y-13036436D01*
X3929158Y-13036436D02*
X3919634Y-13045960D01*
X3919634Y-13045960D02*
X3900586Y-13055484D01*
X3900586Y-13055484D02*
X3881539Y-13055484D01*
X3881539Y-13055484D02*
X3862491Y-13045960D01*
X3862491Y-13045960D02*
X3852967Y-13036436D01*
X3852967Y-13036436D02*
X3843443Y-13017388D01*
X3843443Y-13017388D02*
X3833920Y-12979293D01*
X3833920Y-12979293D02*
X3833920Y-12931674D01*
X3833920Y-12931674D02*
X3843443Y-12893579D01*
X3843443Y-12893579D02*
X3852967Y-12874531D01*
X3852967Y-12874531D02*
X3862491Y-12865008D01*
X3862491Y-12865008D02*
X3881539Y-12855484D01*
X4033920Y-13055484D02*
X4033920Y-12922150D01*
X4033920Y-12941198D02*
X4043443Y-12931674D01*
X4043443Y-12931674D02*
X4062491Y-12922150D01*
X4062491Y-12922150D02*
X4091063Y-12922150D01*
X4091063Y-12922150D02*
X4110110Y-12931674D01*
X4110110Y-12931674D02*
X4119634Y-12950722D01*
X4119634Y-12950722D02*
X4119634Y-13055484D01*
X4119634Y-12950722D02*
X4129158Y-12931674D01*
X4129158Y-12931674D02*
X4148205Y-12922150D01*
X4148205Y-12922150D02*
X4176777Y-12922150D01*
X4176777Y-12922150D02*
X4195825Y-12931674D01*
X4195825Y-12931674D02*
X4205348Y-12950722D01*
X4205348Y-12950722D02*
X4205348Y-13055484D01*
X4300586Y-13055484D02*
X4300586Y-12922150D01*
X4300586Y-12941198D02*
X4310110Y-12931674D01*
X4310110Y-12931674D02*
X4329158Y-12922150D01*
X4329158Y-12922150D02*
X4357729Y-12922150D01*
X4357729Y-12922150D02*
X4376777Y-12931674D01*
X4376777Y-12931674D02*
X4386301Y-12950722D01*
X4386301Y-12950722D02*
X4386301Y-13055484D01*
X4386301Y-12950722D02*
X4395825Y-12931674D01*
X4395825Y-12931674D02*
X4414872Y-12922150D01*
X4414872Y-12922150D02*
X4443444Y-12922150D01*
X4443444Y-12922150D02*
X4462491Y-12931674D01*
X4462491Y-12931674D02*
X4472015Y-12950722D01*
X4472015Y-12950722D02*
X4472015Y-13055484D01*
X4862491Y-12845960D02*
X4691063Y-13103103D01*
X5119634Y-12855484D02*
X5138682Y-12855484D01*
X5138682Y-12855484D02*
X5157729Y-12865008D01*
X5157729Y-12865008D02*
X5167253Y-12874531D01*
X5167253Y-12874531D02*
X5176777Y-12893579D01*
X5176777Y-12893579D02*
X5186301Y-12931674D01*
X5186301Y-12931674D02*
X5186301Y-12979293D01*
X5186301Y-12979293D02*
X5176777Y-13017388D01*
X5176777Y-13017388D02*
X5167253Y-13036436D01*
X5167253Y-13036436D02*
X5157729Y-13045960D01*
X5157729Y-13045960D02*
X5138682Y-13055484D01*
X5138682Y-13055484D02*
X5119634Y-13055484D01*
X5119634Y-13055484D02*
X5100587Y-13045960D01*
X5100587Y-13045960D02*
X5091063Y-13036436D01*
X5091063Y-13036436D02*
X5081539Y-13017388D01*
X5081539Y-13017388D02*
X5072015Y-12979293D01*
X5072015Y-12979293D02*
X5072015Y-12931674D01*
X5072015Y-12931674D02*
X5081539Y-12893579D01*
X5081539Y-12893579D02*
X5091063Y-12874531D01*
X5091063Y-12874531D02*
X5100587Y-12865008D01*
X5100587Y-12865008D02*
X5119634Y-12855484D01*
X5272015Y-13036436D02*
X5281539Y-13045960D01*
X5281539Y-13045960D02*
X5272015Y-13055484D01*
X5272015Y-13055484D02*
X5262491Y-13045960D01*
X5262491Y-13045960D02*
X5272015Y-13036436D01*
X5272015Y-13036436D02*
X5272015Y-13055484D01*
X5405348Y-12855484D02*
X5424396Y-12855484D01*
X5424396Y-12855484D02*
X5443444Y-12865008D01*
X5443444Y-12865008D02*
X5452968Y-12874531D01*
X5452968Y-12874531D02*
X5462491Y-12893579D01*
X5462491Y-12893579D02*
X5472015Y-12931674D01*
X5472015Y-12931674D02*
X5472015Y-12979293D01*
X5472015Y-12979293D02*
X5462491Y-13017388D01*
X5462491Y-13017388D02*
X5452968Y-13036436D01*
X5452968Y-13036436D02*
X5443444Y-13045960D01*
X5443444Y-13045960D02*
X5424396Y-13055484D01*
X5424396Y-13055484D02*
X5405348Y-13055484D01*
X5405348Y-13055484D02*
X5386301Y-13045960D01*
X5386301Y-13045960D02*
X5376777Y-13036436D01*
X5376777Y-13036436D02*
X5367253Y-13017388D01*
X5367253Y-13017388D02*
X5357729Y-12979293D01*
X5357729Y-12979293D02*
X5357729Y-12931674D01*
X5357729Y-12931674D02*
X5367253Y-12893579D01*
X5367253Y-12893579D02*
X5376777Y-12874531D01*
X5376777Y-12874531D02*
X5386301Y-12865008D01*
X5386301Y-12865008D02*
X5405348Y-12855484D01*
X5662491Y-13055484D02*
X5548206Y-13055484D01*
X5605348Y-13055484D02*
X5605348Y-12855484D01*
X5605348Y-12855484D02*
X5586301Y-12884055D01*
X5586301Y-12884055D02*
X5567253Y-12903103D01*
X5567253Y-12903103D02*
X5548206Y-12912627D01*
X5843444Y-12855484D02*
X5748206Y-12855484D01*
X5748206Y-12855484D02*
X5738682Y-12950722D01*
X5738682Y-12950722D02*
X5748206Y-12941198D01*
X5748206Y-12941198D02*
X5767253Y-12931674D01*
X5767253Y-12931674D02*
X5814872Y-12931674D01*
X5814872Y-12931674D02*
X5833920Y-12941198D01*
X5833920Y-12941198D02*
X5843444Y-12950722D01*
X5843444Y-12950722D02*
X5852967Y-12969769D01*
X5852967Y-12969769D02*
X5852967Y-13017388D01*
X5852967Y-13017388D02*
X5843444Y-13036436D01*
X5843444Y-13036436D02*
X5833920Y-13045960D01*
X5833920Y-13045960D02*
X5814872Y-13055484D01*
X5814872Y-13055484D02*
X5767253Y-13055484D01*
X5767253Y-13055484D02*
X5748206Y-13045960D01*
X5748206Y-13045960D02*
X5738682Y-13036436D01*
X5919634Y-12855484D02*
X6052967Y-12855484D01*
X6052967Y-12855484D02*
X5967253Y-13055484D01*
X6119634Y-12855484D02*
X6119634Y-12893579D01*
X6195825Y-12855484D02*
X6195825Y-12893579D01*
X6491063Y-13131674D02*
X6481539Y-13122150D01*
X6481539Y-13122150D02*
X6462491Y-13093579D01*
X6462491Y-13093579D02*
X6452968Y-13074531D01*
X6452968Y-13074531D02*
X6443444Y-13045960D01*
X6443444Y-13045960D02*
X6433920Y-12998341D01*
X6433920Y-12998341D02*
X6433920Y-12960246D01*
X6433920Y-12960246D02*
X6443444Y-12912627D01*
X6443444Y-12912627D02*
X6452968Y-12884055D01*
X6452968Y-12884055D02*
X6462491Y-12865008D01*
X6462491Y-12865008D02*
X6481539Y-12836436D01*
X6481539Y-12836436D02*
X6491063Y-12826912D01*
X6595825Y-12941198D02*
X6576777Y-12931674D01*
X6576777Y-12931674D02*
X6567253Y-12922150D01*
X6567253Y-12922150D02*
X6557729Y-12903103D01*
X6557729Y-12903103D02*
X6557729Y-12893579D01*
X6557729Y-12893579D02*
X6567253Y-12874531D01*
X6567253Y-12874531D02*
X6576777Y-12865008D01*
X6576777Y-12865008D02*
X6595825Y-12855484D01*
X6595825Y-12855484D02*
X6633920Y-12855484D01*
X6633920Y-12855484D02*
X6652968Y-12865008D01*
X6652968Y-12865008D02*
X6662491Y-12874531D01*
X6662491Y-12874531D02*
X6672015Y-12893579D01*
X6672015Y-12893579D02*
X6672015Y-12903103D01*
X6672015Y-12903103D02*
X6662491Y-12922150D01*
X6662491Y-12922150D02*
X6652968Y-12931674D01*
X6652968Y-12931674D02*
X6633920Y-12941198D01*
X6633920Y-12941198D02*
X6595825Y-12941198D01*
X6595825Y-12941198D02*
X6576777Y-12950722D01*
X6576777Y-12950722D02*
X6567253Y-12960246D01*
X6567253Y-12960246D02*
X6557729Y-12979293D01*
X6557729Y-12979293D02*
X6557729Y-13017388D01*
X6557729Y-13017388D02*
X6567253Y-13036436D01*
X6567253Y-13036436D02*
X6576777Y-13045960D01*
X6576777Y-13045960D02*
X6595825Y-13055484D01*
X6595825Y-13055484D02*
X6633920Y-13055484D01*
X6633920Y-13055484D02*
X6652968Y-13045960D01*
X6652968Y-13045960D02*
X6662491Y-13036436D01*
X6662491Y-13036436D02*
X6672015Y-13017388D01*
X6672015Y-13017388D02*
X6672015Y-12979293D01*
X6672015Y-12979293D02*
X6662491Y-12960246D01*
X6662491Y-12960246D02*
X6652968Y-12950722D01*
X6652968Y-12950722D02*
X6633920Y-12941198D01*
X6748206Y-12874531D02*
X6757729Y-12865008D01*
X6757729Y-12865008D02*
X6776777Y-12855484D01*
X6776777Y-12855484D02*
X6824396Y-12855484D01*
X6824396Y-12855484D02*
X6843444Y-12865008D01*
X6843444Y-12865008D02*
X6852968Y-12874531D01*
X6852968Y-12874531D02*
X6862491Y-12893579D01*
X6862491Y-12893579D02*
X6862491Y-12912627D01*
X6862491Y-12912627D02*
X6852968Y-12941198D01*
X6852968Y-12941198D02*
X6738682Y-13055484D01*
X6738682Y-13055484D02*
X6862491Y-13055484D01*
X7100587Y-13055484D02*
X7100587Y-12855484D01*
X7186301Y-13055484D02*
X7186301Y-12950722D01*
X7186301Y-12950722D02*
X7176777Y-12931674D01*
X7176777Y-12931674D02*
X7157730Y-12922150D01*
X7157730Y-12922150D02*
X7129158Y-12922150D01*
X7129158Y-12922150D02*
X7110110Y-12931674D01*
X7110110Y-12931674D02*
X7100587Y-12941198D01*
X7310110Y-13055484D02*
X7291063Y-13045960D01*
X7291063Y-13045960D02*
X7281539Y-13036436D01*
X7281539Y-13036436D02*
X7272015Y-13017388D01*
X7272015Y-13017388D02*
X7272015Y-12960246D01*
X7272015Y-12960246D02*
X7281539Y-12941198D01*
X7281539Y-12941198D02*
X7291063Y-12931674D01*
X7291063Y-12931674D02*
X7310110Y-12922150D01*
X7310110Y-12922150D02*
X7338682Y-12922150D01*
X7338682Y-12922150D02*
X7357730Y-12931674D01*
X7357730Y-12931674D02*
X7367253Y-12941198D01*
X7367253Y-12941198D02*
X7376777Y-12960246D01*
X7376777Y-12960246D02*
X7376777Y-13017388D01*
X7376777Y-13017388D02*
X7367253Y-13036436D01*
X7367253Y-13036436D02*
X7357730Y-13045960D01*
X7357730Y-13045960D02*
X7338682Y-13055484D01*
X7338682Y-13055484D02*
X7310110Y-13055484D01*
X7491063Y-13055484D02*
X7472015Y-13045960D01*
X7472015Y-13045960D02*
X7462491Y-13026912D01*
X7462491Y-13026912D02*
X7462491Y-12855484D01*
X7643444Y-13045960D02*
X7624396Y-13055484D01*
X7624396Y-13055484D02*
X7586301Y-13055484D01*
X7586301Y-13055484D02*
X7567253Y-13045960D01*
X7567253Y-13045960D02*
X7557730Y-13026912D01*
X7557730Y-13026912D02*
X7557730Y-12950722D01*
X7557730Y-12950722D02*
X7567253Y-12931674D01*
X7567253Y-12931674D02*
X7586301Y-12922150D01*
X7586301Y-12922150D02*
X7624396Y-12922150D01*
X7624396Y-12922150D02*
X7643444Y-12931674D01*
X7643444Y-12931674D02*
X7652968Y-12950722D01*
X7652968Y-12950722D02*
X7652968Y-12969769D01*
X7652968Y-12969769D02*
X7557730Y-12988817D01*
X7729158Y-13045960D02*
X7748206Y-13055484D01*
X7748206Y-13055484D02*
X7786301Y-13055484D01*
X7786301Y-13055484D02*
X7805349Y-13045960D01*
X7805349Y-13045960D02*
X7814872Y-13026912D01*
X7814872Y-13026912D02*
X7814872Y-13017388D01*
X7814872Y-13017388D02*
X7805349Y-12998341D01*
X7805349Y-12998341D02*
X7786301Y-12988817D01*
X7786301Y-12988817D02*
X7757730Y-12988817D01*
X7757730Y-12988817D02*
X7738682Y-12979293D01*
X7738682Y-12979293D02*
X7729158Y-12960246D01*
X7729158Y-12960246D02*
X7729158Y-12950722D01*
X7729158Y-12950722D02*
X7738682Y-12931674D01*
X7738682Y-12931674D02*
X7757730Y-12922150D01*
X7757730Y-12922150D02*
X7786301Y-12922150D01*
X7786301Y-12922150D02*
X7805349Y-12931674D01*
X7881539Y-13131674D02*
X7891063Y-13122150D01*
X7891063Y-13122150D02*
X7910111Y-13093579D01*
X7910111Y-13093579D02*
X7919634Y-13074531D01*
X7919634Y-13074531D02*
X7929158Y-13045960D01*
X7929158Y-13045960D02*
X7938682Y-12998341D01*
X7938682Y-12998341D02*
X7938682Y-12960246D01*
X7938682Y-12960246D02*
X7929158Y-12912627D01*
X7929158Y-12912627D02*
X7919634Y-12884055D01*
X7919634Y-12884055D02*
X7910111Y-12865008D01*
X7910111Y-12865008D02*
X7891063Y-12836436D01*
X7891063Y-12836436D02*
X7881539Y-12826912D01*
D10*
X2916000Y-13228000D02*
G75*
G02*
X2839800Y-13228000I-38100J0D01*
G01*
X2839800Y-13228000D02*
G75*
G02*
X2916000Y-13228000I38100J0D01*
G01*
D11*
X3214872Y-13119484D02*
X3233920Y-13119484D01*
X3233920Y-13119484D02*
X3252967Y-13129008D01*
X3252967Y-13129008D02*
X3262491Y-13138531D01*
X3262491Y-13138531D02*
X3272015Y-13157579D01*
X3272015Y-13157579D02*
X3281539Y-13195674D01*
X3281539Y-13195674D02*
X3281539Y-13243293D01*
X3281539Y-13243293D02*
X3272015Y-13281388D01*
X3272015Y-13281388D02*
X3262491Y-13300436D01*
X3262491Y-13300436D02*
X3252967Y-13309960D01*
X3252967Y-13309960D02*
X3233920Y-13319484D01*
X3233920Y-13319484D02*
X3214872Y-13319484D01*
X3214872Y-13319484D02*
X3195824Y-13309960D01*
X3195824Y-13309960D02*
X3186301Y-13300436D01*
X3186301Y-13300436D02*
X3176777Y-13281388D01*
X3176777Y-13281388D02*
X3167253Y-13243293D01*
X3167253Y-13243293D02*
X3167253Y-13195674D01*
X3167253Y-13195674D02*
X3176777Y-13157579D01*
X3176777Y-13157579D02*
X3186301Y-13138531D01*
X3186301Y-13138531D02*
X3195824Y-13129008D01*
X3195824Y-13129008D02*
X3214872Y-13119484D01*
X3367253Y-13300436D02*
X3376777Y-13309960D01*
X3376777Y-13309960D02*
X3367253Y-13319484D01*
X3367253Y-13319484D02*
X3357729Y-13309960D01*
X3357729Y-13309960D02*
X3367253Y-13300436D01*
X3367253Y-13300436D02*
X3367253Y-13319484D01*
X3443443Y-13119484D02*
X3576777Y-13119484D01*
X3576777Y-13119484D02*
X3491062Y-13319484D01*
X3738682Y-13119484D02*
X3700586Y-13119484D01*
X3700586Y-13119484D02*
X3681539Y-13129008D01*
X3681539Y-13129008D02*
X3672015Y-13138531D01*
X3672015Y-13138531D02*
X3652967Y-13167103D01*
X3652967Y-13167103D02*
X3643443Y-13205198D01*
X3643443Y-13205198D02*
X3643443Y-13281388D01*
X3643443Y-13281388D02*
X3652967Y-13300436D01*
X3652967Y-13300436D02*
X3662491Y-13309960D01*
X3662491Y-13309960D02*
X3681539Y-13319484D01*
X3681539Y-13319484D02*
X3719634Y-13319484D01*
X3719634Y-13319484D02*
X3738682Y-13309960D01*
X3738682Y-13309960D02*
X3748205Y-13300436D01*
X3748205Y-13300436D02*
X3757729Y-13281388D01*
X3757729Y-13281388D02*
X3757729Y-13233769D01*
X3757729Y-13233769D02*
X3748205Y-13214722D01*
X3748205Y-13214722D02*
X3738682Y-13205198D01*
X3738682Y-13205198D02*
X3719634Y-13195674D01*
X3719634Y-13195674D02*
X3681539Y-13195674D01*
X3681539Y-13195674D02*
X3662491Y-13205198D01*
X3662491Y-13205198D02*
X3652967Y-13214722D01*
X3652967Y-13214722D02*
X3643443Y-13233769D01*
X3833920Y-13138531D02*
X3843443Y-13129008D01*
X3843443Y-13129008D02*
X3862491Y-13119484D01*
X3862491Y-13119484D02*
X3910110Y-13119484D01*
X3910110Y-13119484D02*
X3929158Y-13129008D01*
X3929158Y-13129008D02*
X3938682Y-13138531D01*
X3938682Y-13138531D02*
X3948205Y-13157579D01*
X3948205Y-13157579D02*
X3948205Y-13176627D01*
X3948205Y-13176627D02*
X3938682Y-13205198D01*
X3938682Y-13205198D02*
X3824396Y-13319484D01*
X3824396Y-13319484D02*
X3948205Y-13319484D01*
X4033920Y-13319484D02*
X4033920Y-13186150D01*
X4033920Y-13205198D02*
X4043443Y-13195674D01*
X4043443Y-13195674D02*
X4062491Y-13186150D01*
X4062491Y-13186150D02*
X4091063Y-13186150D01*
X4091063Y-13186150D02*
X4110110Y-13195674D01*
X4110110Y-13195674D02*
X4119634Y-13214722D01*
X4119634Y-13214722D02*
X4119634Y-13319484D01*
X4119634Y-13214722D02*
X4129158Y-13195674D01*
X4129158Y-13195674D02*
X4148205Y-13186150D01*
X4148205Y-13186150D02*
X4176777Y-13186150D01*
X4176777Y-13186150D02*
X4195825Y-13195674D01*
X4195825Y-13195674D02*
X4205348Y-13214722D01*
X4205348Y-13214722D02*
X4205348Y-13319484D01*
X4300586Y-13319484D02*
X4300586Y-13186150D01*
X4300586Y-13205198D02*
X4310110Y-13195674D01*
X4310110Y-13195674D02*
X4329158Y-13186150D01*
X4329158Y-13186150D02*
X4357729Y-13186150D01*
X4357729Y-13186150D02*
X4376777Y-13195674D01*
X4376777Y-13195674D02*
X4386301Y-13214722D01*
X4386301Y-13214722D02*
X4386301Y-13319484D01*
X4386301Y-13214722D02*
X4395825Y-13195674D01*
X4395825Y-13195674D02*
X4414872Y-13186150D01*
X4414872Y-13186150D02*
X4443444Y-13186150D01*
X4443444Y-13186150D02*
X4462491Y-13195674D01*
X4462491Y-13195674D02*
X4472015Y-13214722D01*
X4472015Y-13214722D02*
X4472015Y-13319484D01*
X4862491Y-13109960D02*
X4691063Y-13367103D01*
X5119634Y-13119484D02*
X5138682Y-13119484D01*
X5138682Y-13119484D02*
X5157729Y-13129008D01*
X5157729Y-13129008D02*
X5167253Y-13138531D01*
X5167253Y-13138531D02*
X5176777Y-13157579D01*
X5176777Y-13157579D02*
X5186301Y-13195674D01*
X5186301Y-13195674D02*
X5186301Y-13243293D01*
X5186301Y-13243293D02*
X5176777Y-13281388D01*
X5176777Y-13281388D02*
X5167253Y-13300436D01*
X5167253Y-13300436D02*
X5157729Y-13309960D01*
X5157729Y-13309960D02*
X5138682Y-13319484D01*
X5138682Y-13319484D02*
X5119634Y-13319484D01*
X5119634Y-13319484D02*
X5100587Y-13309960D01*
X5100587Y-13309960D02*
X5091063Y-13300436D01*
X5091063Y-13300436D02*
X5081539Y-13281388D01*
X5081539Y-13281388D02*
X5072015Y-13243293D01*
X5072015Y-13243293D02*
X5072015Y-13195674D01*
X5072015Y-13195674D02*
X5081539Y-13157579D01*
X5081539Y-13157579D02*
X5091063Y-13138531D01*
X5091063Y-13138531D02*
X5100587Y-13129008D01*
X5100587Y-13129008D02*
X5119634Y-13119484D01*
X5272015Y-13300436D02*
X5281539Y-13309960D01*
X5281539Y-13309960D02*
X5272015Y-13319484D01*
X5272015Y-13319484D02*
X5262491Y-13309960D01*
X5262491Y-13309960D02*
X5272015Y-13300436D01*
X5272015Y-13300436D02*
X5272015Y-13319484D01*
X5405348Y-13119484D02*
X5424396Y-13119484D01*
X5424396Y-13119484D02*
X5443444Y-13129008D01*
X5443444Y-13129008D02*
X5452968Y-13138531D01*
X5452968Y-13138531D02*
X5462491Y-13157579D01*
X5462491Y-13157579D02*
X5472015Y-13195674D01*
X5472015Y-13195674D02*
X5472015Y-13243293D01*
X5472015Y-13243293D02*
X5462491Y-13281388D01*
X5462491Y-13281388D02*
X5452968Y-13300436D01*
X5452968Y-13300436D02*
X5443444Y-13309960D01*
X5443444Y-13309960D02*
X5424396Y-13319484D01*
X5424396Y-13319484D02*
X5405348Y-13319484D01*
X5405348Y-13319484D02*
X5386301Y-13309960D01*
X5386301Y-13309960D02*
X5376777Y-13300436D01*
X5376777Y-13300436D02*
X5367253Y-13281388D01*
X5367253Y-13281388D02*
X5357729Y-13243293D01*
X5357729Y-13243293D02*
X5357729Y-13195674D01*
X5357729Y-13195674D02*
X5367253Y-13157579D01*
X5367253Y-13157579D02*
X5376777Y-13138531D01*
X5376777Y-13138531D02*
X5386301Y-13129008D01*
X5386301Y-13129008D02*
X5405348Y-13119484D01*
X5538682Y-13119484D02*
X5662491Y-13119484D01*
X5662491Y-13119484D02*
X5595825Y-13195674D01*
X5595825Y-13195674D02*
X5624396Y-13195674D01*
X5624396Y-13195674D02*
X5643444Y-13205198D01*
X5643444Y-13205198D02*
X5652967Y-13214722D01*
X5652967Y-13214722D02*
X5662491Y-13233769D01*
X5662491Y-13233769D02*
X5662491Y-13281388D01*
X5662491Y-13281388D02*
X5652967Y-13300436D01*
X5652967Y-13300436D02*
X5643444Y-13309960D01*
X5643444Y-13309960D02*
X5624396Y-13319484D01*
X5624396Y-13319484D02*
X5567253Y-13319484D01*
X5567253Y-13319484D02*
X5548206Y-13309960D01*
X5548206Y-13309960D02*
X5538682Y-13300436D01*
X5786301Y-13119484D02*
X5805348Y-13119484D01*
X5805348Y-13119484D02*
X5824396Y-13129008D01*
X5824396Y-13129008D02*
X5833920Y-13138531D01*
X5833920Y-13138531D02*
X5843444Y-13157579D01*
X5843444Y-13157579D02*
X5852967Y-13195674D01*
X5852967Y-13195674D02*
X5852967Y-13243293D01*
X5852967Y-13243293D02*
X5843444Y-13281388D01*
X5843444Y-13281388D02*
X5833920Y-13300436D01*
X5833920Y-13300436D02*
X5824396Y-13309960D01*
X5824396Y-13309960D02*
X5805348Y-13319484D01*
X5805348Y-13319484D02*
X5786301Y-13319484D01*
X5786301Y-13319484D02*
X5767253Y-13309960D01*
X5767253Y-13309960D02*
X5757729Y-13300436D01*
X5757729Y-13300436D02*
X5748206Y-13281388D01*
X5748206Y-13281388D02*
X5738682Y-13243293D01*
X5738682Y-13243293D02*
X5738682Y-13195674D01*
X5738682Y-13195674D02*
X5748206Y-13157579D01*
X5748206Y-13157579D02*
X5757729Y-13138531D01*
X5757729Y-13138531D02*
X5767253Y-13129008D01*
X5767253Y-13129008D02*
X5786301Y-13119484D01*
X5976777Y-13119484D02*
X5995825Y-13119484D01*
X5995825Y-13119484D02*
X6014872Y-13129008D01*
X6014872Y-13129008D02*
X6024396Y-13138531D01*
X6024396Y-13138531D02*
X6033920Y-13157579D01*
X6033920Y-13157579D02*
X6043444Y-13195674D01*
X6043444Y-13195674D02*
X6043444Y-13243293D01*
X6043444Y-13243293D02*
X6033920Y-13281388D01*
X6033920Y-13281388D02*
X6024396Y-13300436D01*
X6024396Y-13300436D02*
X6014872Y-13309960D01*
X6014872Y-13309960D02*
X5995825Y-13319484D01*
X5995825Y-13319484D02*
X5976777Y-13319484D01*
X5976777Y-13319484D02*
X5957729Y-13309960D01*
X5957729Y-13309960D02*
X5948206Y-13300436D01*
X5948206Y-13300436D02*
X5938682Y-13281388D01*
X5938682Y-13281388D02*
X5929158Y-13243293D01*
X5929158Y-13243293D02*
X5929158Y-13195674D01*
X5929158Y-13195674D02*
X5938682Y-13157579D01*
X5938682Y-13157579D02*
X5948206Y-13138531D01*
X5948206Y-13138531D02*
X5957729Y-13129008D01*
X5957729Y-13129008D02*
X5976777Y-13119484D01*
X6119634Y-13119484D02*
X6119634Y-13157579D01*
X6195825Y-13119484D02*
X6195825Y-13157579D01*
X6491063Y-13395674D02*
X6481539Y-13386150D01*
X6481539Y-13386150D02*
X6462491Y-13357579D01*
X6462491Y-13357579D02*
X6452968Y-13338531D01*
X6452968Y-13338531D02*
X6443444Y-13309960D01*
X6443444Y-13309960D02*
X6433920Y-13262341D01*
X6433920Y-13262341D02*
X6433920Y-13224246D01*
X6433920Y-13224246D02*
X6443444Y-13176627D01*
X6443444Y-13176627D02*
X6452968Y-13148055D01*
X6452968Y-13148055D02*
X6462491Y-13129008D01*
X6462491Y-13129008D02*
X6481539Y-13100436D01*
X6481539Y-13100436D02*
X6491063Y-13090912D01*
X6652968Y-13119484D02*
X6614872Y-13119484D01*
X6614872Y-13119484D02*
X6595825Y-13129008D01*
X6595825Y-13129008D02*
X6586301Y-13138531D01*
X6586301Y-13138531D02*
X6567253Y-13167103D01*
X6567253Y-13167103D02*
X6557729Y-13205198D01*
X6557729Y-13205198D02*
X6557729Y-13281388D01*
X6557729Y-13281388D02*
X6567253Y-13300436D01*
X6567253Y-13300436D02*
X6576777Y-13309960D01*
X6576777Y-13309960D02*
X6595825Y-13319484D01*
X6595825Y-13319484D02*
X6633920Y-13319484D01*
X6633920Y-13319484D02*
X6652968Y-13309960D01*
X6652968Y-13309960D02*
X6662491Y-13300436D01*
X6662491Y-13300436D02*
X6672015Y-13281388D01*
X6672015Y-13281388D02*
X6672015Y-13233769D01*
X6672015Y-13233769D02*
X6662491Y-13214722D01*
X6662491Y-13214722D02*
X6652968Y-13205198D01*
X6652968Y-13205198D02*
X6633920Y-13195674D01*
X6633920Y-13195674D02*
X6595825Y-13195674D01*
X6595825Y-13195674D02*
X6576777Y-13205198D01*
X6576777Y-13205198D02*
X6567253Y-13214722D01*
X6567253Y-13214722D02*
X6557729Y-13233769D01*
X6910110Y-13319484D02*
X6910110Y-13119484D01*
X6995825Y-13319484D02*
X6995825Y-13214722D01*
X6995825Y-13214722D02*
X6986301Y-13195674D01*
X6986301Y-13195674D02*
X6967253Y-13186150D01*
X6967253Y-13186150D02*
X6938682Y-13186150D01*
X6938682Y-13186150D02*
X6919634Y-13195674D01*
X6919634Y-13195674D02*
X6910110Y-13205198D01*
X7119634Y-13319484D02*
X7100587Y-13309960D01*
X7100587Y-13309960D02*
X7091063Y-13300436D01*
X7091063Y-13300436D02*
X7081539Y-13281388D01*
X7081539Y-13281388D02*
X7081539Y-13224246D01*
X7081539Y-13224246D02*
X7091063Y-13205198D01*
X7091063Y-13205198D02*
X7100587Y-13195674D01*
X7100587Y-13195674D02*
X7119634Y-13186150D01*
X7119634Y-13186150D02*
X7148206Y-13186150D01*
X7148206Y-13186150D02*
X7167253Y-13195674D01*
X7167253Y-13195674D02*
X7176777Y-13205198D01*
X7176777Y-13205198D02*
X7186301Y-13224246D01*
X7186301Y-13224246D02*
X7186301Y-13281388D01*
X7186301Y-13281388D02*
X7176777Y-13300436D01*
X7176777Y-13300436D02*
X7167253Y-13309960D01*
X7167253Y-13309960D02*
X7148206Y-13319484D01*
X7148206Y-13319484D02*
X7119634Y-13319484D01*
X7300587Y-13319484D02*
X7281539Y-13309960D01*
X7281539Y-13309960D02*
X7272015Y-13290912D01*
X7272015Y-13290912D02*
X7272015Y-13119484D01*
X7452968Y-13309960D02*
X7433920Y-13319484D01*
X7433920Y-13319484D02*
X7395825Y-13319484D01*
X7395825Y-13319484D02*
X7376777Y-13309960D01*
X7376777Y-13309960D02*
X7367253Y-13290912D01*
X7367253Y-13290912D02*
X7367253Y-13214722D01*
X7367253Y-13214722D02*
X7376777Y-13195674D01*
X7376777Y-13195674D02*
X7395825Y-13186150D01*
X7395825Y-13186150D02*
X7433920Y-13186150D01*
X7433920Y-13186150D02*
X7452968Y-13195674D01*
X7452968Y-13195674D02*
X7462491Y-13214722D01*
X7462491Y-13214722D02*
X7462491Y-13233769D01*
X7462491Y-13233769D02*
X7367253Y-13252817D01*
X7538682Y-13309960D02*
X7557730Y-13319484D01*
X7557730Y-13319484D02*
X7595825Y-13319484D01*
X7595825Y-13319484D02*
X7614872Y-13309960D01*
X7614872Y-13309960D02*
X7624396Y-13290912D01*
X7624396Y-13290912D02*
X7624396Y-13281388D01*
X7624396Y-13281388D02*
X7614872Y-13262341D01*
X7614872Y-13262341D02*
X7595825Y-13252817D01*
X7595825Y-13252817D02*
X7567253Y-13252817D01*
X7567253Y-13252817D02*
X7548206Y-13243293D01*
X7548206Y-13243293D02*
X7538682Y-13224246D01*
X7538682Y-13224246D02*
X7538682Y-13214722D01*
X7538682Y-13214722D02*
X7548206Y-13195674D01*
X7548206Y-13195674D02*
X7567253Y-13186150D01*
X7567253Y-13186150D02*
X7595825Y-13186150D01*
X7595825Y-13186150D02*
X7614872Y-13195674D01*
X7691063Y-13395674D02*
X7700587Y-13386150D01*
X7700587Y-13386150D02*
X7719634Y-13357579D01*
X7719634Y-13357579D02*
X7729158Y-13338531D01*
X7729158Y-13338531D02*
X7738682Y-13309960D01*
X7738682Y-13309960D02*
X7748206Y-13262341D01*
X7748206Y-13262341D02*
X7748206Y-13224246D01*
X7748206Y-13224246D02*
X7738682Y-13176627D01*
X7738682Y-13176627D02*
X7729158Y-13148055D01*
X7729158Y-13148055D02*
X7719634Y-13129008D01*
X7719634Y-13129008D02*
X7700587Y-13100436D01*
X7700587Y-13100436D02*
X7691063Y-13090912D01*
D10*
X2876000Y-13452000D02*
X2876000Y-13532000D01*
X2836000Y-13492000D02*
X2916000Y-13492000D01*
D11*
X3214872Y-13383484D02*
X3233920Y-13383484D01*
X3233920Y-13383484D02*
X3252967Y-13393008D01*
X3252967Y-13393008D02*
X3262491Y-13402531D01*
X3262491Y-13402531D02*
X3272015Y-13421579D01*
X3272015Y-13421579D02*
X3281539Y-13459674D01*
X3281539Y-13459674D02*
X3281539Y-13507293D01*
X3281539Y-13507293D02*
X3272015Y-13545388D01*
X3272015Y-13545388D02*
X3262491Y-13564436D01*
X3262491Y-13564436D02*
X3252967Y-13573960D01*
X3252967Y-13573960D02*
X3233920Y-13583484D01*
X3233920Y-13583484D02*
X3214872Y-13583484D01*
X3214872Y-13583484D02*
X3195824Y-13573960D01*
X3195824Y-13573960D02*
X3186301Y-13564436D01*
X3186301Y-13564436D02*
X3176777Y-13545388D01*
X3176777Y-13545388D02*
X3167253Y-13507293D01*
X3167253Y-13507293D02*
X3167253Y-13459674D01*
X3167253Y-13459674D02*
X3176777Y-13421579D01*
X3176777Y-13421579D02*
X3186301Y-13402531D01*
X3186301Y-13402531D02*
X3195824Y-13393008D01*
X3195824Y-13393008D02*
X3214872Y-13383484D01*
X3367253Y-13564436D02*
X3376777Y-13573960D01*
X3376777Y-13573960D02*
X3367253Y-13583484D01*
X3367253Y-13583484D02*
X3357729Y-13573960D01*
X3357729Y-13573960D02*
X3367253Y-13564436D01*
X3367253Y-13564436D02*
X3367253Y-13583484D01*
X3491062Y-13469198D02*
X3472015Y-13459674D01*
X3472015Y-13459674D02*
X3462491Y-13450150D01*
X3462491Y-13450150D02*
X3452967Y-13431103D01*
X3452967Y-13431103D02*
X3452967Y-13421579D01*
X3452967Y-13421579D02*
X3462491Y-13402531D01*
X3462491Y-13402531D02*
X3472015Y-13393008D01*
X3472015Y-13393008D02*
X3491062Y-13383484D01*
X3491062Y-13383484D02*
X3529158Y-13383484D01*
X3529158Y-13383484D02*
X3548205Y-13393008D01*
X3548205Y-13393008D02*
X3557729Y-13402531D01*
X3557729Y-13402531D02*
X3567253Y-13421579D01*
X3567253Y-13421579D02*
X3567253Y-13431103D01*
X3567253Y-13431103D02*
X3557729Y-13450150D01*
X3557729Y-13450150D02*
X3548205Y-13459674D01*
X3548205Y-13459674D02*
X3529158Y-13469198D01*
X3529158Y-13469198D02*
X3491062Y-13469198D01*
X3491062Y-13469198D02*
X3472015Y-13478722D01*
X3472015Y-13478722D02*
X3462491Y-13488246D01*
X3462491Y-13488246D02*
X3452967Y-13507293D01*
X3452967Y-13507293D02*
X3452967Y-13545388D01*
X3452967Y-13545388D02*
X3462491Y-13564436D01*
X3462491Y-13564436D02*
X3472015Y-13573960D01*
X3472015Y-13573960D02*
X3491062Y-13583484D01*
X3491062Y-13583484D02*
X3529158Y-13583484D01*
X3529158Y-13583484D02*
X3548205Y-13573960D01*
X3548205Y-13573960D02*
X3557729Y-13564436D01*
X3557729Y-13564436D02*
X3567253Y-13545388D01*
X3567253Y-13545388D02*
X3567253Y-13507293D01*
X3567253Y-13507293D02*
X3557729Y-13488246D01*
X3557729Y-13488246D02*
X3548205Y-13478722D01*
X3548205Y-13478722D02*
X3529158Y-13469198D01*
X3691062Y-13383484D02*
X3710110Y-13383484D01*
X3710110Y-13383484D02*
X3729158Y-13393008D01*
X3729158Y-13393008D02*
X3738682Y-13402531D01*
X3738682Y-13402531D02*
X3748205Y-13421579D01*
X3748205Y-13421579D02*
X3757729Y-13459674D01*
X3757729Y-13459674D02*
X3757729Y-13507293D01*
X3757729Y-13507293D02*
X3748205Y-13545388D01*
X3748205Y-13545388D02*
X3738682Y-13564436D01*
X3738682Y-13564436D02*
X3729158Y-13573960D01*
X3729158Y-13573960D02*
X3710110Y-13583484D01*
X3710110Y-13583484D02*
X3691062Y-13583484D01*
X3691062Y-13583484D02*
X3672015Y-13573960D01*
X3672015Y-13573960D02*
X3662491Y-13564436D01*
X3662491Y-13564436D02*
X3652967Y-13545388D01*
X3652967Y-13545388D02*
X3643443Y-13507293D01*
X3643443Y-13507293D02*
X3643443Y-13459674D01*
X3643443Y-13459674D02*
X3652967Y-13421579D01*
X3652967Y-13421579D02*
X3662491Y-13402531D01*
X3662491Y-13402531D02*
X3672015Y-13393008D01*
X3672015Y-13393008D02*
X3691062Y-13383484D01*
X3881539Y-13383484D02*
X3900586Y-13383484D01*
X3900586Y-13383484D02*
X3919634Y-13393008D01*
X3919634Y-13393008D02*
X3929158Y-13402531D01*
X3929158Y-13402531D02*
X3938682Y-13421579D01*
X3938682Y-13421579D02*
X3948205Y-13459674D01*
X3948205Y-13459674D02*
X3948205Y-13507293D01*
X3948205Y-13507293D02*
X3938682Y-13545388D01*
X3938682Y-13545388D02*
X3929158Y-13564436D01*
X3929158Y-13564436D02*
X3919634Y-13573960D01*
X3919634Y-13573960D02*
X3900586Y-13583484D01*
X3900586Y-13583484D02*
X3881539Y-13583484D01*
X3881539Y-13583484D02*
X3862491Y-13573960D01*
X3862491Y-13573960D02*
X3852967Y-13564436D01*
X3852967Y-13564436D02*
X3843443Y-13545388D01*
X3843443Y-13545388D02*
X3833920Y-13507293D01*
X3833920Y-13507293D02*
X3833920Y-13459674D01*
X3833920Y-13459674D02*
X3843443Y-13421579D01*
X3843443Y-13421579D02*
X3852967Y-13402531D01*
X3852967Y-13402531D02*
X3862491Y-13393008D01*
X3862491Y-13393008D02*
X3881539Y-13383484D01*
X4033920Y-13583484D02*
X4033920Y-13450150D01*
X4033920Y-13469198D02*
X4043443Y-13459674D01*
X4043443Y-13459674D02*
X4062491Y-13450150D01*
X4062491Y-13450150D02*
X4091063Y-13450150D01*
X4091063Y-13450150D02*
X4110110Y-13459674D01*
X4110110Y-13459674D02*
X4119634Y-13478722D01*
X4119634Y-13478722D02*
X4119634Y-13583484D01*
X4119634Y-13478722D02*
X4129158Y-13459674D01*
X4129158Y-13459674D02*
X4148205Y-13450150D01*
X4148205Y-13450150D02*
X4176777Y-13450150D01*
X4176777Y-13450150D02*
X4195825Y-13459674D01*
X4195825Y-13459674D02*
X4205348Y-13478722D01*
X4205348Y-13478722D02*
X4205348Y-13583484D01*
X4300586Y-13583484D02*
X4300586Y-13450150D01*
X4300586Y-13469198D02*
X4310110Y-13459674D01*
X4310110Y-13459674D02*
X4329158Y-13450150D01*
X4329158Y-13450150D02*
X4357729Y-13450150D01*
X4357729Y-13450150D02*
X4376777Y-13459674D01*
X4376777Y-13459674D02*
X4386301Y-13478722D01*
X4386301Y-13478722D02*
X4386301Y-13583484D01*
X4386301Y-13478722D02*
X4395825Y-13459674D01*
X4395825Y-13459674D02*
X4414872Y-13450150D01*
X4414872Y-13450150D02*
X4443444Y-13450150D01*
X4443444Y-13450150D02*
X4462491Y-13459674D01*
X4462491Y-13459674D02*
X4472015Y-13478722D01*
X4472015Y-13478722D02*
X4472015Y-13583484D01*
X4862491Y-13373960D02*
X4691063Y-13631103D01*
X5119634Y-13383484D02*
X5138682Y-13383484D01*
X5138682Y-13383484D02*
X5157729Y-13393008D01*
X5157729Y-13393008D02*
X5167253Y-13402531D01*
X5167253Y-13402531D02*
X5176777Y-13421579D01*
X5176777Y-13421579D02*
X5186301Y-13459674D01*
X5186301Y-13459674D02*
X5186301Y-13507293D01*
X5186301Y-13507293D02*
X5176777Y-13545388D01*
X5176777Y-13545388D02*
X5167253Y-13564436D01*
X5167253Y-13564436D02*
X5157729Y-13573960D01*
X5157729Y-13573960D02*
X5138682Y-13583484D01*
X5138682Y-13583484D02*
X5119634Y-13583484D01*
X5119634Y-13583484D02*
X5100587Y-13573960D01*
X5100587Y-13573960D02*
X5091063Y-13564436D01*
X5091063Y-13564436D02*
X5081539Y-13545388D01*
X5081539Y-13545388D02*
X5072015Y-13507293D01*
X5072015Y-13507293D02*
X5072015Y-13459674D01*
X5072015Y-13459674D02*
X5081539Y-13421579D01*
X5081539Y-13421579D02*
X5091063Y-13402531D01*
X5091063Y-13402531D02*
X5100587Y-13393008D01*
X5100587Y-13393008D02*
X5119634Y-13383484D01*
X5272015Y-13564436D02*
X5281539Y-13573960D01*
X5281539Y-13573960D02*
X5272015Y-13583484D01*
X5272015Y-13583484D02*
X5262491Y-13573960D01*
X5262491Y-13573960D02*
X5272015Y-13564436D01*
X5272015Y-13564436D02*
X5272015Y-13583484D01*
X5405348Y-13383484D02*
X5424396Y-13383484D01*
X5424396Y-13383484D02*
X5443444Y-13393008D01*
X5443444Y-13393008D02*
X5452968Y-13402531D01*
X5452968Y-13402531D02*
X5462491Y-13421579D01*
X5462491Y-13421579D02*
X5472015Y-13459674D01*
X5472015Y-13459674D02*
X5472015Y-13507293D01*
X5472015Y-13507293D02*
X5462491Y-13545388D01*
X5462491Y-13545388D02*
X5452968Y-13564436D01*
X5452968Y-13564436D02*
X5443444Y-13573960D01*
X5443444Y-13573960D02*
X5424396Y-13583484D01*
X5424396Y-13583484D02*
X5405348Y-13583484D01*
X5405348Y-13583484D02*
X5386301Y-13573960D01*
X5386301Y-13573960D02*
X5376777Y-13564436D01*
X5376777Y-13564436D02*
X5367253Y-13545388D01*
X5367253Y-13545388D02*
X5357729Y-13507293D01*
X5357729Y-13507293D02*
X5357729Y-13459674D01*
X5357729Y-13459674D02*
X5367253Y-13421579D01*
X5367253Y-13421579D02*
X5376777Y-13402531D01*
X5376777Y-13402531D02*
X5386301Y-13393008D01*
X5386301Y-13393008D02*
X5405348Y-13383484D01*
X5538682Y-13383484D02*
X5662491Y-13383484D01*
X5662491Y-13383484D02*
X5595825Y-13459674D01*
X5595825Y-13459674D02*
X5624396Y-13459674D01*
X5624396Y-13459674D02*
X5643444Y-13469198D01*
X5643444Y-13469198D02*
X5652967Y-13478722D01*
X5652967Y-13478722D02*
X5662491Y-13497769D01*
X5662491Y-13497769D02*
X5662491Y-13545388D01*
X5662491Y-13545388D02*
X5652967Y-13564436D01*
X5652967Y-13564436D02*
X5643444Y-13573960D01*
X5643444Y-13573960D02*
X5624396Y-13583484D01*
X5624396Y-13583484D02*
X5567253Y-13583484D01*
X5567253Y-13583484D02*
X5548206Y-13573960D01*
X5548206Y-13573960D02*
X5538682Y-13564436D01*
X5852967Y-13583484D02*
X5738682Y-13583484D01*
X5795825Y-13583484D02*
X5795825Y-13383484D01*
X5795825Y-13383484D02*
X5776777Y-13412055D01*
X5776777Y-13412055D02*
X5757729Y-13431103D01*
X5757729Y-13431103D02*
X5738682Y-13440627D01*
X6033920Y-13383484D02*
X5938682Y-13383484D01*
X5938682Y-13383484D02*
X5929158Y-13478722D01*
X5929158Y-13478722D02*
X5938682Y-13469198D01*
X5938682Y-13469198D02*
X5957729Y-13459674D01*
X5957729Y-13459674D02*
X6005348Y-13459674D01*
X6005348Y-13459674D02*
X6024396Y-13469198D01*
X6024396Y-13469198D02*
X6033920Y-13478722D01*
X6033920Y-13478722D02*
X6043444Y-13497769D01*
X6043444Y-13497769D02*
X6043444Y-13545388D01*
X6043444Y-13545388D02*
X6033920Y-13564436D01*
X6033920Y-13564436D02*
X6024396Y-13573960D01*
X6024396Y-13573960D02*
X6005348Y-13583484D01*
X6005348Y-13583484D02*
X5957729Y-13583484D01*
X5957729Y-13583484D02*
X5938682Y-13573960D01*
X5938682Y-13573960D02*
X5929158Y-13564436D01*
X6119634Y-13383484D02*
X6119634Y-13421579D01*
X6195825Y-13383484D02*
X6195825Y-13421579D01*
X6491063Y-13659674D02*
X6481539Y-13650150D01*
X6481539Y-13650150D02*
X6462491Y-13621579D01*
X6462491Y-13621579D02*
X6452968Y-13602531D01*
X6452968Y-13602531D02*
X6443444Y-13573960D01*
X6443444Y-13573960D02*
X6433920Y-13526341D01*
X6433920Y-13526341D02*
X6433920Y-13488246D01*
X6433920Y-13488246D02*
X6443444Y-13440627D01*
X6443444Y-13440627D02*
X6452968Y-13412055D01*
X6452968Y-13412055D02*
X6462491Y-13393008D01*
X6462491Y-13393008D02*
X6481539Y-13364436D01*
X6481539Y-13364436D02*
X6491063Y-13354912D01*
X6672015Y-13583484D02*
X6557729Y-13583484D01*
X6614872Y-13583484D02*
X6614872Y-13383484D01*
X6614872Y-13383484D02*
X6595825Y-13412055D01*
X6595825Y-13412055D02*
X6576777Y-13431103D01*
X6576777Y-13431103D02*
X6557729Y-13440627D01*
X6862491Y-13583484D02*
X6748206Y-13583484D01*
X6805348Y-13583484D02*
X6805348Y-13383484D01*
X6805348Y-13383484D02*
X6786301Y-13412055D01*
X6786301Y-13412055D02*
X6767253Y-13431103D01*
X6767253Y-13431103D02*
X6748206Y-13440627D01*
X7043444Y-13383484D02*
X6948206Y-13383484D01*
X6948206Y-13383484D02*
X6938682Y-13478722D01*
X6938682Y-13478722D02*
X6948206Y-13469198D01*
X6948206Y-13469198D02*
X6967253Y-13459674D01*
X6967253Y-13459674D02*
X7014872Y-13459674D01*
X7014872Y-13459674D02*
X7033920Y-13469198D01*
X7033920Y-13469198D02*
X7043444Y-13478722D01*
X7043444Y-13478722D02*
X7052968Y-13497769D01*
X7052968Y-13497769D02*
X7052968Y-13545388D01*
X7052968Y-13545388D02*
X7043444Y-13564436D01*
X7043444Y-13564436D02*
X7033920Y-13573960D01*
X7033920Y-13573960D02*
X7014872Y-13583484D01*
X7014872Y-13583484D02*
X6967253Y-13583484D01*
X6967253Y-13583484D02*
X6948206Y-13573960D01*
X6948206Y-13573960D02*
X6938682Y-13564436D01*
X7291063Y-13583484D02*
X7291063Y-13383484D01*
X7376777Y-13583484D02*
X7376777Y-13478722D01*
X7376777Y-13478722D02*
X7367253Y-13459674D01*
X7367253Y-13459674D02*
X7348206Y-13450150D01*
X7348206Y-13450150D02*
X7319634Y-13450150D01*
X7319634Y-13450150D02*
X7300587Y-13459674D01*
X7300587Y-13459674D02*
X7291063Y-13469198D01*
X7500587Y-13583484D02*
X7481539Y-13573960D01*
X7481539Y-13573960D02*
X7472015Y-13564436D01*
X7472015Y-13564436D02*
X7462491Y-13545388D01*
X7462491Y-13545388D02*
X7462491Y-13488246D01*
X7462491Y-13488246D02*
X7472015Y-13469198D01*
X7472015Y-13469198D02*
X7481539Y-13459674D01*
X7481539Y-13459674D02*
X7500587Y-13450150D01*
X7500587Y-13450150D02*
X7529158Y-13450150D01*
X7529158Y-13450150D02*
X7548206Y-13459674D01*
X7548206Y-13459674D02*
X7557730Y-13469198D01*
X7557730Y-13469198D02*
X7567253Y-13488246D01*
X7567253Y-13488246D02*
X7567253Y-13545388D01*
X7567253Y-13545388D02*
X7557730Y-13564436D01*
X7557730Y-13564436D02*
X7548206Y-13573960D01*
X7548206Y-13573960D02*
X7529158Y-13583484D01*
X7529158Y-13583484D02*
X7500587Y-13583484D01*
X7681539Y-13583484D02*
X7662491Y-13573960D01*
X7662491Y-13573960D02*
X7652968Y-13554912D01*
X7652968Y-13554912D02*
X7652968Y-13383484D01*
X7833920Y-13573960D02*
X7814872Y-13583484D01*
X7814872Y-13583484D02*
X7776777Y-13583484D01*
X7776777Y-13583484D02*
X7757730Y-13573960D01*
X7757730Y-13573960D02*
X7748206Y-13554912D01*
X7748206Y-13554912D02*
X7748206Y-13478722D01*
X7748206Y-13478722D02*
X7757730Y-13459674D01*
X7757730Y-13459674D02*
X7776777Y-13450150D01*
X7776777Y-13450150D02*
X7814872Y-13450150D01*
X7814872Y-13450150D02*
X7833920Y-13459674D01*
X7833920Y-13459674D02*
X7843444Y-13478722D01*
X7843444Y-13478722D02*
X7843444Y-13497769D01*
X7843444Y-13497769D02*
X7748206Y-13516817D01*
X7919634Y-13573960D02*
X7938682Y-13583484D01*
X7938682Y-13583484D02*
X7976777Y-13583484D01*
X7976777Y-13583484D02*
X7995825Y-13573960D01*
X7995825Y-13573960D02*
X8005349Y-13554912D01*
X8005349Y-13554912D02*
X8005349Y-13545388D01*
X8005349Y-13545388D02*
X7995825Y-13526341D01*
X7995825Y-13526341D02*
X7976777Y-13516817D01*
X7976777Y-13516817D02*
X7948206Y-13516817D01*
X7948206Y-13516817D02*
X7929158Y-13507293D01*
X7929158Y-13507293D02*
X7919634Y-13488246D01*
X7919634Y-13488246D02*
X7919634Y-13478722D01*
X7919634Y-13478722D02*
X7929158Y-13459674D01*
X7929158Y-13459674D02*
X7948206Y-13450150D01*
X7948206Y-13450150D02*
X7976777Y-13450150D01*
X7976777Y-13450150D02*
X7995825Y-13459674D01*
X8072015Y-13659674D02*
X8081539Y-13650150D01*
X8081539Y-13650150D02*
X8100587Y-13621579D01*
X8100587Y-13621579D02*
X8110111Y-13602531D01*
X8110111Y-13602531D02*
X8119634Y-13573960D01*
X8119634Y-13573960D02*
X8129158Y-13526341D01*
X8129158Y-13526341D02*
X8129158Y-13488246D01*
X8129158Y-13488246D02*
X8119634Y-13440627D01*
X8119634Y-13440627D02*
X8110111Y-13412055D01*
X8110111Y-13412055D02*
X8100587Y-13393008D01*
X8100587Y-13393008D02*
X8081539Y-13364436D01*
X8081539Y-13364436D02*
X8072015Y-13354912D01*
D10*
X2901356Y-13791356D02*
X2901356Y-13720644D01*
X2830644Y-13720644D01*
X2830644Y-13791356D01*
X2901356Y-13791356D01*
D11*
X3281539Y-13847484D02*
X3167253Y-13847484D01*
X3224396Y-13847484D02*
X3224396Y-13647484D01*
X3224396Y-13647484D02*
X3205348Y-13676055D01*
X3205348Y-13676055D02*
X3186301Y-13695103D01*
X3186301Y-13695103D02*
X3167253Y-13704627D01*
X3367253Y-13828436D02*
X3376777Y-13837960D01*
X3376777Y-13837960D02*
X3367253Y-13847484D01*
X3367253Y-13847484D02*
X3357729Y-13837960D01*
X3357729Y-13837960D02*
X3367253Y-13828436D01*
X3367253Y-13828436D02*
X3367253Y-13847484D01*
X3500586Y-13647484D02*
X3519634Y-13647484D01*
X3519634Y-13647484D02*
X3538682Y-13657008D01*
X3538682Y-13657008D02*
X3548205Y-13666531D01*
X3548205Y-13666531D02*
X3557729Y-13685579D01*
X3557729Y-13685579D02*
X3567253Y-13723674D01*
X3567253Y-13723674D02*
X3567253Y-13771293D01*
X3567253Y-13771293D02*
X3557729Y-13809388D01*
X3557729Y-13809388D02*
X3548205Y-13828436D01*
X3548205Y-13828436D02*
X3538682Y-13837960D01*
X3538682Y-13837960D02*
X3519634Y-13847484D01*
X3519634Y-13847484D02*
X3500586Y-13847484D01*
X3500586Y-13847484D02*
X3481539Y-13837960D01*
X3481539Y-13837960D02*
X3472015Y-13828436D01*
X3472015Y-13828436D02*
X3462491Y-13809388D01*
X3462491Y-13809388D02*
X3452967Y-13771293D01*
X3452967Y-13771293D02*
X3452967Y-13723674D01*
X3452967Y-13723674D02*
X3462491Y-13685579D01*
X3462491Y-13685579D02*
X3472015Y-13666531D01*
X3472015Y-13666531D02*
X3481539Y-13657008D01*
X3481539Y-13657008D02*
X3500586Y-13647484D01*
X3691062Y-13647484D02*
X3710110Y-13647484D01*
X3710110Y-13647484D02*
X3729158Y-13657008D01*
X3729158Y-13657008D02*
X3738682Y-13666531D01*
X3738682Y-13666531D02*
X3748205Y-13685579D01*
X3748205Y-13685579D02*
X3757729Y-13723674D01*
X3757729Y-13723674D02*
X3757729Y-13771293D01*
X3757729Y-13771293D02*
X3748205Y-13809388D01*
X3748205Y-13809388D02*
X3738682Y-13828436D01*
X3738682Y-13828436D02*
X3729158Y-13837960D01*
X3729158Y-13837960D02*
X3710110Y-13847484D01*
X3710110Y-13847484D02*
X3691062Y-13847484D01*
X3691062Y-13847484D02*
X3672015Y-13837960D01*
X3672015Y-13837960D02*
X3662491Y-13828436D01*
X3662491Y-13828436D02*
X3652967Y-13809388D01*
X3652967Y-13809388D02*
X3643443Y-13771293D01*
X3643443Y-13771293D02*
X3643443Y-13723674D01*
X3643443Y-13723674D02*
X3652967Y-13685579D01*
X3652967Y-13685579D02*
X3662491Y-13666531D01*
X3662491Y-13666531D02*
X3672015Y-13657008D01*
X3672015Y-13657008D02*
X3691062Y-13647484D01*
X3881539Y-13647484D02*
X3900586Y-13647484D01*
X3900586Y-13647484D02*
X3919634Y-13657008D01*
X3919634Y-13657008D02*
X3929158Y-13666531D01*
X3929158Y-13666531D02*
X3938682Y-13685579D01*
X3938682Y-13685579D02*
X3948205Y-13723674D01*
X3948205Y-13723674D02*
X3948205Y-13771293D01*
X3948205Y-13771293D02*
X3938682Y-13809388D01*
X3938682Y-13809388D02*
X3929158Y-13828436D01*
X3929158Y-13828436D02*
X3919634Y-13837960D01*
X3919634Y-13837960D02*
X3900586Y-13847484D01*
X3900586Y-13847484D02*
X3881539Y-13847484D01*
X3881539Y-13847484D02*
X3862491Y-13837960D01*
X3862491Y-13837960D02*
X3852967Y-13828436D01*
X3852967Y-13828436D02*
X3843443Y-13809388D01*
X3843443Y-13809388D02*
X3833920Y-13771293D01*
X3833920Y-13771293D02*
X3833920Y-13723674D01*
X3833920Y-13723674D02*
X3843443Y-13685579D01*
X3843443Y-13685579D02*
X3852967Y-13666531D01*
X3852967Y-13666531D02*
X3862491Y-13657008D01*
X3862491Y-13657008D02*
X3881539Y-13647484D01*
X4033920Y-13847484D02*
X4033920Y-13714150D01*
X4033920Y-13733198D02*
X4043443Y-13723674D01*
X4043443Y-13723674D02*
X4062491Y-13714150D01*
X4062491Y-13714150D02*
X4091063Y-13714150D01*
X4091063Y-13714150D02*
X4110110Y-13723674D01*
X4110110Y-13723674D02*
X4119634Y-13742722D01*
X4119634Y-13742722D02*
X4119634Y-13847484D01*
X4119634Y-13742722D02*
X4129158Y-13723674D01*
X4129158Y-13723674D02*
X4148205Y-13714150D01*
X4148205Y-13714150D02*
X4176777Y-13714150D01*
X4176777Y-13714150D02*
X4195825Y-13723674D01*
X4195825Y-13723674D02*
X4205348Y-13742722D01*
X4205348Y-13742722D02*
X4205348Y-13847484D01*
X4300586Y-13847484D02*
X4300586Y-13714150D01*
X4300586Y-13733198D02*
X4310110Y-13723674D01*
X4310110Y-13723674D02*
X4329158Y-13714150D01*
X4329158Y-13714150D02*
X4357729Y-13714150D01*
X4357729Y-13714150D02*
X4376777Y-13723674D01*
X4376777Y-13723674D02*
X4386301Y-13742722D01*
X4386301Y-13742722D02*
X4386301Y-13847484D01*
X4386301Y-13742722D02*
X4395825Y-13723674D01*
X4395825Y-13723674D02*
X4414872Y-13714150D01*
X4414872Y-13714150D02*
X4443444Y-13714150D01*
X4443444Y-13714150D02*
X4462491Y-13723674D01*
X4462491Y-13723674D02*
X4472015Y-13742722D01*
X4472015Y-13742722D02*
X4472015Y-13847484D01*
X4862491Y-13637960D02*
X4691063Y-13895103D01*
X5119634Y-13647484D02*
X5138682Y-13647484D01*
X5138682Y-13647484D02*
X5157729Y-13657008D01*
X5157729Y-13657008D02*
X5167253Y-13666531D01*
X5167253Y-13666531D02*
X5176777Y-13685579D01*
X5176777Y-13685579D02*
X5186301Y-13723674D01*
X5186301Y-13723674D02*
X5186301Y-13771293D01*
X5186301Y-13771293D02*
X5176777Y-13809388D01*
X5176777Y-13809388D02*
X5167253Y-13828436D01*
X5167253Y-13828436D02*
X5157729Y-13837960D01*
X5157729Y-13837960D02*
X5138682Y-13847484D01*
X5138682Y-13847484D02*
X5119634Y-13847484D01*
X5119634Y-13847484D02*
X5100587Y-13837960D01*
X5100587Y-13837960D02*
X5091063Y-13828436D01*
X5091063Y-13828436D02*
X5081539Y-13809388D01*
X5081539Y-13809388D02*
X5072015Y-13771293D01*
X5072015Y-13771293D02*
X5072015Y-13723674D01*
X5072015Y-13723674D02*
X5081539Y-13685579D01*
X5081539Y-13685579D02*
X5091063Y-13666531D01*
X5091063Y-13666531D02*
X5100587Y-13657008D01*
X5100587Y-13657008D02*
X5119634Y-13647484D01*
X5272015Y-13828436D02*
X5281539Y-13837960D01*
X5281539Y-13837960D02*
X5272015Y-13847484D01*
X5272015Y-13847484D02*
X5262491Y-13837960D01*
X5262491Y-13837960D02*
X5272015Y-13828436D01*
X5272015Y-13828436D02*
X5272015Y-13847484D01*
X5405348Y-13647484D02*
X5424396Y-13647484D01*
X5424396Y-13647484D02*
X5443444Y-13657008D01*
X5443444Y-13657008D02*
X5452968Y-13666531D01*
X5452968Y-13666531D02*
X5462491Y-13685579D01*
X5462491Y-13685579D02*
X5472015Y-13723674D01*
X5472015Y-13723674D02*
X5472015Y-13771293D01*
X5472015Y-13771293D02*
X5462491Y-13809388D01*
X5462491Y-13809388D02*
X5452968Y-13828436D01*
X5452968Y-13828436D02*
X5443444Y-13837960D01*
X5443444Y-13837960D02*
X5424396Y-13847484D01*
X5424396Y-13847484D02*
X5405348Y-13847484D01*
X5405348Y-13847484D02*
X5386301Y-13837960D01*
X5386301Y-13837960D02*
X5376777Y-13828436D01*
X5376777Y-13828436D02*
X5367253Y-13809388D01*
X5367253Y-13809388D02*
X5357729Y-13771293D01*
X5357729Y-13771293D02*
X5357729Y-13723674D01*
X5357729Y-13723674D02*
X5367253Y-13685579D01*
X5367253Y-13685579D02*
X5376777Y-13666531D01*
X5376777Y-13666531D02*
X5386301Y-13657008D01*
X5386301Y-13657008D02*
X5405348Y-13647484D01*
X5538682Y-13647484D02*
X5662491Y-13647484D01*
X5662491Y-13647484D02*
X5595825Y-13723674D01*
X5595825Y-13723674D02*
X5624396Y-13723674D01*
X5624396Y-13723674D02*
X5643444Y-13733198D01*
X5643444Y-13733198D02*
X5652967Y-13742722D01*
X5652967Y-13742722D02*
X5662491Y-13761769D01*
X5662491Y-13761769D02*
X5662491Y-13809388D01*
X5662491Y-13809388D02*
X5652967Y-13828436D01*
X5652967Y-13828436D02*
X5643444Y-13837960D01*
X5643444Y-13837960D02*
X5624396Y-13847484D01*
X5624396Y-13847484D02*
X5567253Y-13847484D01*
X5567253Y-13847484D02*
X5548206Y-13837960D01*
X5548206Y-13837960D02*
X5538682Y-13828436D01*
X5757729Y-13847484D02*
X5795825Y-13847484D01*
X5795825Y-13847484D02*
X5814872Y-13837960D01*
X5814872Y-13837960D02*
X5824396Y-13828436D01*
X5824396Y-13828436D02*
X5843444Y-13799865D01*
X5843444Y-13799865D02*
X5852967Y-13761769D01*
X5852967Y-13761769D02*
X5852967Y-13685579D01*
X5852967Y-13685579D02*
X5843444Y-13666531D01*
X5843444Y-13666531D02*
X5833920Y-13657008D01*
X5833920Y-13657008D02*
X5814872Y-13647484D01*
X5814872Y-13647484D02*
X5776777Y-13647484D01*
X5776777Y-13647484D02*
X5757729Y-13657008D01*
X5757729Y-13657008D02*
X5748206Y-13666531D01*
X5748206Y-13666531D02*
X5738682Y-13685579D01*
X5738682Y-13685579D02*
X5738682Y-13733198D01*
X5738682Y-13733198D02*
X5748206Y-13752246D01*
X5748206Y-13752246D02*
X5757729Y-13761769D01*
X5757729Y-13761769D02*
X5776777Y-13771293D01*
X5776777Y-13771293D02*
X5814872Y-13771293D01*
X5814872Y-13771293D02*
X5833920Y-13761769D01*
X5833920Y-13761769D02*
X5843444Y-13752246D01*
X5843444Y-13752246D02*
X5852967Y-13733198D01*
X6024396Y-13714150D02*
X6024396Y-13847484D01*
X5976777Y-13637960D02*
X5929158Y-13780817D01*
X5929158Y-13780817D02*
X6052967Y-13780817D01*
X6119634Y-13647484D02*
X6119634Y-13685579D01*
X6195825Y-13647484D02*
X6195825Y-13685579D01*
X6491063Y-13923674D02*
X6481539Y-13914150D01*
X6481539Y-13914150D02*
X6462491Y-13885579D01*
X6462491Y-13885579D02*
X6452968Y-13866531D01*
X6452968Y-13866531D02*
X6443444Y-13837960D01*
X6443444Y-13837960D02*
X6433920Y-13790341D01*
X6433920Y-13790341D02*
X6433920Y-13752246D01*
X6433920Y-13752246D02*
X6443444Y-13704627D01*
X6443444Y-13704627D02*
X6452968Y-13676055D01*
X6452968Y-13676055D02*
X6462491Y-13657008D01*
X6462491Y-13657008D02*
X6481539Y-13628436D01*
X6481539Y-13628436D02*
X6491063Y-13618912D01*
X6652968Y-13714150D02*
X6652968Y-13847484D01*
X6605348Y-13637960D02*
X6557729Y-13780817D01*
X6557729Y-13780817D02*
X6681539Y-13780817D01*
X6843444Y-13714150D02*
X6843444Y-13847484D01*
X6795825Y-13637960D02*
X6748206Y-13780817D01*
X6748206Y-13780817D02*
X6872015Y-13780817D01*
X7100587Y-13847484D02*
X7100587Y-13647484D01*
X7186301Y-13847484D02*
X7186301Y-13742722D01*
X7186301Y-13742722D02*
X7176777Y-13723674D01*
X7176777Y-13723674D02*
X7157730Y-13714150D01*
X7157730Y-13714150D02*
X7129158Y-13714150D01*
X7129158Y-13714150D02*
X7110110Y-13723674D01*
X7110110Y-13723674D02*
X7100587Y-13733198D01*
X7310110Y-13847484D02*
X7291063Y-13837960D01*
X7291063Y-13837960D02*
X7281539Y-13828436D01*
X7281539Y-13828436D02*
X7272015Y-13809388D01*
X7272015Y-13809388D02*
X7272015Y-13752246D01*
X7272015Y-13752246D02*
X7281539Y-13733198D01*
X7281539Y-13733198D02*
X7291063Y-13723674D01*
X7291063Y-13723674D02*
X7310110Y-13714150D01*
X7310110Y-13714150D02*
X7338682Y-13714150D01*
X7338682Y-13714150D02*
X7357730Y-13723674D01*
X7357730Y-13723674D02*
X7367253Y-13733198D01*
X7367253Y-13733198D02*
X7376777Y-13752246D01*
X7376777Y-13752246D02*
X7376777Y-13809388D01*
X7376777Y-13809388D02*
X7367253Y-13828436D01*
X7367253Y-13828436D02*
X7357730Y-13837960D01*
X7357730Y-13837960D02*
X7338682Y-13847484D01*
X7338682Y-13847484D02*
X7310110Y-13847484D01*
X7491063Y-13847484D02*
X7472015Y-13837960D01*
X7472015Y-13837960D02*
X7462491Y-13818912D01*
X7462491Y-13818912D02*
X7462491Y-13647484D01*
X7643444Y-13837960D02*
X7624396Y-13847484D01*
X7624396Y-13847484D02*
X7586301Y-13847484D01*
X7586301Y-13847484D02*
X7567253Y-13837960D01*
X7567253Y-13837960D02*
X7557730Y-13818912D01*
X7557730Y-13818912D02*
X7557730Y-13742722D01*
X7557730Y-13742722D02*
X7567253Y-13723674D01*
X7567253Y-13723674D02*
X7586301Y-13714150D01*
X7586301Y-13714150D02*
X7624396Y-13714150D01*
X7624396Y-13714150D02*
X7643444Y-13723674D01*
X7643444Y-13723674D02*
X7652968Y-13742722D01*
X7652968Y-13742722D02*
X7652968Y-13761769D01*
X7652968Y-13761769D02*
X7557730Y-13780817D01*
X7729158Y-13837960D02*
X7748206Y-13847484D01*
X7748206Y-13847484D02*
X7786301Y-13847484D01*
X7786301Y-13847484D02*
X7805349Y-13837960D01*
X7805349Y-13837960D02*
X7814872Y-13818912D01*
X7814872Y-13818912D02*
X7814872Y-13809388D01*
X7814872Y-13809388D02*
X7805349Y-13790341D01*
X7805349Y-13790341D02*
X7786301Y-13780817D01*
X7786301Y-13780817D02*
X7757730Y-13780817D01*
X7757730Y-13780817D02*
X7738682Y-13771293D01*
X7738682Y-13771293D02*
X7729158Y-13752246D01*
X7729158Y-13752246D02*
X7729158Y-13742722D01*
X7729158Y-13742722D02*
X7738682Y-13723674D01*
X7738682Y-13723674D02*
X7757730Y-13714150D01*
X7757730Y-13714150D02*
X7786301Y-13714150D01*
X7786301Y-13714150D02*
X7805349Y-13723674D01*
X8052968Y-13771293D02*
X8205349Y-13771293D01*
X8129158Y-13847484D02*
X8129158Y-13695103D01*
X8433920Y-13647484D02*
X8557730Y-13647484D01*
X8557730Y-13647484D02*
X8491063Y-13723674D01*
X8491063Y-13723674D02*
X8519635Y-13723674D01*
X8519635Y-13723674D02*
X8538682Y-13733198D01*
X8538682Y-13733198D02*
X8548206Y-13742722D01*
X8548206Y-13742722D02*
X8557730Y-13761769D01*
X8557730Y-13761769D02*
X8557730Y-13809388D01*
X8557730Y-13809388D02*
X8548206Y-13828436D01*
X8548206Y-13828436D02*
X8538682Y-13837960D01*
X8538682Y-13837960D02*
X8519635Y-13847484D01*
X8519635Y-13847484D02*
X8462492Y-13847484D01*
X8462492Y-13847484D02*
X8443444Y-13837960D01*
X8443444Y-13837960D02*
X8433920Y-13828436D01*
X8786301Y-13837960D02*
X8805349Y-13847484D01*
X8805349Y-13847484D02*
X8843444Y-13847484D01*
X8843444Y-13847484D02*
X8862492Y-13837960D01*
X8862492Y-13837960D02*
X8872016Y-13818912D01*
X8872016Y-13818912D02*
X8872016Y-13809388D01*
X8872016Y-13809388D02*
X8862492Y-13790341D01*
X8862492Y-13790341D02*
X8843444Y-13780817D01*
X8843444Y-13780817D02*
X8814873Y-13780817D01*
X8814873Y-13780817D02*
X8795825Y-13771293D01*
X8795825Y-13771293D02*
X8786301Y-13752246D01*
X8786301Y-13752246D02*
X8786301Y-13742722D01*
X8786301Y-13742722D02*
X8795825Y-13723674D01*
X8795825Y-13723674D02*
X8814873Y-13714150D01*
X8814873Y-13714150D02*
X8843444Y-13714150D01*
X8843444Y-13714150D02*
X8862492Y-13723674D01*
X8986301Y-13847484D02*
X8967254Y-13837960D01*
X8967254Y-13837960D02*
X8957730Y-13818912D01*
X8957730Y-13818912D02*
X8957730Y-13647484D01*
X9091063Y-13847484D02*
X9072016Y-13837960D01*
X9072016Y-13837960D02*
X9062492Y-13828436D01*
X9062492Y-13828436D02*
X9052968Y-13809388D01*
X9052968Y-13809388D02*
X9052968Y-13752246D01*
X9052968Y-13752246D02*
X9062492Y-13733198D01*
X9062492Y-13733198D02*
X9072016Y-13723674D01*
X9072016Y-13723674D02*
X9091063Y-13714150D01*
X9091063Y-13714150D02*
X9119635Y-13714150D01*
X9119635Y-13714150D02*
X9138682Y-13723674D01*
X9138682Y-13723674D02*
X9148206Y-13733198D01*
X9148206Y-13733198D02*
X9157730Y-13752246D01*
X9157730Y-13752246D02*
X9157730Y-13809388D01*
X9157730Y-13809388D02*
X9148206Y-13828436D01*
X9148206Y-13828436D02*
X9138682Y-13837960D01*
X9138682Y-13837960D02*
X9119635Y-13847484D01*
X9119635Y-13847484D02*
X9091063Y-13847484D01*
X9214873Y-13714150D02*
X9291063Y-13714150D01*
X9243444Y-13647484D02*
X9243444Y-13818912D01*
X9243444Y-13818912D02*
X9252968Y-13837960D01*
X9252968Y-13837960D02*
X9272016Y-13847484D01*
X9272016Y-13847484D02*
X9291063Y-13847484D01*
X9348206Y-13837960D02*
X9367254Y-13847484D01*
X9367254Y-13847484D02*
X9405349Y-13847484D01*
X9405349Y-13847484D02*
X9424397Y-13837960D01*
X9424397Y-13837960D02*
X9433920Y-13818912D01*
X9433920Y-13818912D02*
X9433920Y-13809388D01*
X9433920Y-13809388D02*
X9424397Y-13790341D01*
X9424397Y-13790341D02*
X9405349Y-13780817D01*
X9405349Y-13780817D02*
X9376777Y-13780817D01*
X9376777Y-13780817D02*
X9357730Y-13771293D01*
X9357730Y-13771293D02*
X9348206Y-13752246D01*
X9348206Y-13752246D02*
X9348206Y-13742722D01*
X9348206Y-13742722D02*
X9357730Y-13723674D01*
X9357730Y-13723674D02*
X9376777Y-13714150D01*
X9376777Y-13714150D02*
X9405349Y-13714150D01*
X9405349Y-13714150D02*
X9424397Y-13723674D01*
X9500587Y-13923674D02*
X9510111Y-13914150D01*
X9510111Y-13914150D02*
X9529158Y-13885579D01*
X9529158Y-13885579D02*
X9538682Y-13866531D01*
X9538682Y-13866531D02*
X9548206Y-13837960D01*
X9548206Y-13837960D02*
X9557730Y-13790341D01*
X9557730Y-13790341D02*
X9557730Y-13752246D01*
X9557730Y-13752246D02*
X9548206Y-13704627D01*
X9548206Y-13704627D02*
X9538682Y-13676055D01*
X9538682Y-13676055D02*
X9529158Y-13657008D01*
X9529158Y-13657008D02*
X9510111Y-13628436D01*
X9510111Y-13628436D02*
X9500587Y-13618912D01*
D12*
X2836000Y-14100000D02*
X2916000Y-14020000D01*
X2836000Y-13940000D01*
X2756000Y-14020000D01*
X2836000Y-14100000D01*
D11*
X3281539Y-14111484D02*
X3167253Y-14111484D01*
X3224396Y-14111484D02*
X3224396Y-13911484D01*
X3224396Y-13911484D02*
X3205348Y-13940055D01*
X3205348Y-13940055D02*
X3186301Y-13959103D01*
X3186301Y-13959103D02*
X3167253Y-13968627D01*
X3367253Y-14092436D02*
X3376777Y-14101960D01*
X3376777Y-14101960D02*
X3367253Y-14111484D01*
X3367253Y-14111484D02*
X3357729Y-14101960D01*
X3357729Y-14101960D02*
X3367253Y-14092436D01*
X3367253Y-14092436D02*
X3367253Y-14111484D01*
X3548205Y-13911484D02*
X3510110Y-13911484D01*
X3510110Y-13911484D02*
X3491062Y-13921008D01*
X3491062Y-13921008D02*
X3481539Y-13930531D01*
X3481539Y-13930531D02*
X3462491Y-13959103D01*
X3462491Y-13959103D02*
X3452967Y-13997198D01*
X3452967Y-13997198D02*
X3452967Y-14073388D01*
X3452967Y-14073388D02*
X3462491Y-14092436D01*
X3462491Y-14092436D02*
X3472015Y-14101960D01*
X3472015Y-14101960D02*
X3491062Y-14111484D01*
X3491062Y-14111484D02*
X3529158Y-14111484D01*
X3529158Y-14111484D02*
X3548205Y-14101960D01*
X3548205Y-14101960D02*
X3557729Y-14092436D01*
X3557729Y-14092436D02*
X3567253Y-14073388D01*
X3567253Y-14073388D02*
X3567253Y-14025769D01*
X3567253Y-14025769D02*
X3557729Y-14006722D01*
X3557729Y-14006722D02*
X3548205Y-13997198D01*
X3548205Y-13997198D02*
X3529158Y-13987674D01*
X3529158Y-13987674D02*
X3491062Y-13987674D01*
X3491062Y-13987674D02*
X3472015Y-13997198D01*
X3472015Y-13997198D02*
X3462491Y-14006722D01*
X3462491Y-14006722D02*
X3452967Y-14025769D01*
X3691062Y-13911484D02*
X3710110Y-13911484D01*
X3710110Y-13911484D02*
X3729158Y-13921008D01*
X3729158Y-13921008D02*
X3738682Y-13930531D01*
X3738682Y-13930531D02*
X3748205Y-13949579D01*
X3748205Y-13949579D02*
X3757729Y-13987674D01*
X3757729Y-13987674D02*
X3757729Y-14035293D01*
X3757729Y-14035293D02*
X3748205Y-14073388D01*
X3748205Y-14073388D02*
X3738682Y-14092436D01*
X3738682Y-14092436D02*
X3729158Y-14101960D01*
X3729158Y-14101960D02*
X3710110Y-14111484D01*
X3710110Y-14111484D02*
X3691062Y-14111484D01*
X3691062Y-14111484D02*
X3672015Y-14101960D01*
X3672015Y-14101960D02*
X3662491Y-14092436D01*
X3662491Y-14092436D02*
X3652967Y-14073388D01*
X3652967Y-14073388D02*
X3643443Y-14035293D01*
X3643443Y-14035293D02*
X3643443Y-13987674D01*
X3643443Y-13987674D02*
X3652967Y-13949579D01*
X3652967Y-13949579D02*
X3662491Y-13930531D01*
X3662491Y-13930531D02*
X3672015Y-13921008D01*
X3672015Y-13921008D02*
X3691062Y-13911484D01*
X3881539Y-13911484D02*
X3900586Y-13911484D01*
X3900586Y-13911484D02*
X3919634Y-13921008D01*
X3919634Y-13921008D02*
X3929158Y-13930531D01*
X3929158Y-13930531D02*
X3938682Y-13949579D01*
X3938682Y-13949579D02*
X3948205Y-13987674D01*
X3948205Y-13987674D02*
X3948205Y-14035293D01*
X3948205Y-14035293D02*
X3938682Y-14073388D01*
X3938682Y-14073388D02*
X3929158Y-14092436D01*
X3929158Y-14092436D02*
X3919634Y-14101960D01*
X3919634Y-14101960D02*
X3900586Y-14111484D01*
X3900586Y-14111484D02*
X3881539Y-14111484D01*
X3881539Y-14111484D02*
X3862491Y-14101960D01*
X3862491Y-14101960D02*
X3852967Y-14092436D01*
X3852967Y-14092436D02*
X3843443Y-14073388D01*
X3843443Y-14073388D02*
X3833920Y-14035293D01*
X3833920Y-14035293D02*
X3833920Y-13987674D01*
X3833920Y-13987674D02*
X3843443Y-13949579D01*
X3843443Y-13949579D02*
X3852967Y-13930531D01*
X3852967Y-13930531D02*
X3862491Y-13921008D01*
X3862491Y-13921008D02*
X3881539Y-13911484D01*
X4033920Y-14111484D02*
X4033920Y-13978150D01*
X4033920Y-13997198D02*
X4043443Y-13987674D01*
X4043443Y-13987674D02*
X4062491Y-13978150D01*
X4062491Y-13978150D02*
X4091063Y-13978150D01*
X4091063Y-13978150D02*
X4110110Y-13987674D01*
X4110110Y-13987674D02*
X4119634Y-14006722D01*
X4119634Y-14006722D02*
X4119634Y-14111484D01*
X4119634Y-14006722D02*
X4129158Y-13987674D01*
X4129158Y-13987674D02*
X4148205Y-13978150D01*
X4148205Y-13978150D02*
X4176777Y-13978150D01*
X4176777Y-13978150D02*
X4195825Y-13987674D01*
X4195825Y-13987674D02*
X4205348Y-14006722D01*
X4205348Y-14006722D02*
X4205348Y-14111484D01*
X4300586Y-14111484D02*
X4300586Y-13978150D01*
X4300586Y-13997198D02*
X4310110Y-13987674D01*
X4310110Y-13987674D02*
X4329158Y-13978150D01*
X4329158Y-13978150D02*
X4357729Y-13978150D01*
X4357729Y-13978150D02*
X4376777Y-13987674D01*
X4376777Y-13987674D02*
X4386301Y-14006722D01*
X4386301Y-14006722D02*
X4386301Y-14111484D01*
X4386301Y-14006722D02*
X4395825Y-13987674D01*
X4395825Y-13987674D02*
X4414872Y-13978150D01*
X4414872Y-13978150D02*
X4443444Y-13978150D01*
X4443444Y-13978150D02*
X4462491Y-13987674D01*
X4462491Y-13987674D02*
X4472015Y-14006722D01*
X4472015Y-14006722D02*
X4472015Y-14111484D01*
X4862491Y-13901960D02*
X4691063Y-14159103D01*
X5119634Y-13911484D02*
X5138682Y-13911484D01*
X5138682Y-13911484D02*
X5157729Y-13921008D01*
X5157729Y-13921008D02*
X5167253Y-13930531D01*
X5167253Y-13930531D02*
X5176777Y-13949579D01*
X5176777Y-13949579D02*
X5186301Y-13987674D01*
X5186301Y-13987674D02*
X5186301Y-14035293D01*
X5186301Y-14035293D02*
X5176777Y-14073388D01*
X5176777Y-14073388D02*
X5167253Y-14092436D01*
X5167253Y-14092436D02*
X5157729Y-14101960D01*
X5157729Y-14101960D02*
X5138682Y-14111484D01*
X5138682Y-14111484D02*
X5119634Y-14111484D01*
X5119634Y-14111484D02*
X5100587Y-14101960D01*
X5100587Y-14101960D02*
X5091063Y-14092436D01*
X5091063Y-14092436D02*
X5081539Y-14073388D01*
X5081539Y-14073388D02*
X5072015Y-14035293D01*
X5072015Y-14035293D02*
X5072015Y-13987674D01*
X5072015Y-13987674D02*
X5081539Y-13949579D01*
X5081539Y-13949579D02*
X5091063Y-13930531D01*
X5091063Y-13930531D02*
X5100587Y-13921008D01*
X5100587Y-13921008D02*
X5119634Y-13911484D01*
X5272015Y-14092436D02*
X5281539Y-14101960D01*
X5281539Y-14101960D02*
X5272015Y-14111484D01*
X5272015Y-14111484D02*
X5262491Y-14101960D01*
X5262491Y-14101960D02*
X5272015Y-14092436D01*
X5272015Y-14092436D02*
X5272015Y-14111484D01*
X5405348Y-13911484D02*
X5424396Y-13911484D01*
X5424396Y-13911484D02*
X5443444Y-13921008D01*
X5443444Y-13921008D02*
X5452968Y-13930531D01*
X5452968Y-13930531D02*
X5462491Y-13949579D01*
X5462491Y-13949579D02*
X5472015Y-13987674D01*
X5472015Y-13987674D02*
X5472015Y-14035293D01*
X5472015Y-14035293D02*
X5462491Y-14073388D01*
X5462491Y-14073388D02*
X5452968Y-14092436D01*
X5452968Y-14092436D02*
X5443444Y-14101960D01*
X5443444Y-14101960D02*
X5424396Y-14111484D01*
X5424396Y-14111484D02*
X5405348Y-14111484D01*
X5405348Y-14111484D02*
X5386301Y-14101960D01*
X5386301Y-14101960D02*
X5376777Y-14092436D01*
X5376777Y-14092436D02*
X5367253Y-14073388D01*
X5367253Y-14073388D02*
X5357729Y-14035293D01*
X5357729Y-14035293D02*
X5357729Y-13987674D01*
X5357729Y-13987674D02*
X5367253Y-13949579D01*
X5367253Y-13949579D02*
X5376777Y-13930531D01*
X5376777Y-13930531D02*
X5386301Y-13921008D01*
X5386301Y-13921008D02*
X5405348Y-13911484D01*
X5643444Y-13911484D02*
X5605348Y-13911484D01*
X5605348Y-13911484D02*
X5586301Y-13921008D01*
X5586301Y-13921008D02*
X5576777Y-13930531D01*
X5576777Y-13930531D02*
X5557729Y-13959103D01*
X5557729Y-13959103D02*
X5548206Y-13997198D01*
X5548206Y-13997198D02*
X5548206Y-14073388D01*
X5548206Y-14073388D02*
X5557729Y-14092436D01*
X5557729Y-14092436D02*
X5567253Y-14101960D01*
X5567253Y-14101960D02*
X5586301Y-14111484D01*
X5586301Y-14111484D02*
X5624396Y-14111484D01*
X5624396Y-14111484D02*
X5643444Y-14101960D01*
X5643444Y-14101960D02*
X5652967Y-14092436D01*
X5652967Y-14092436D02*
X5662491Y-14073388D01*
X5662491Y-14073388D02*
X5662491Y-14025769D01*
X5662491Y-14025769D02*
X5652967Y-14006722D01*
X5652967Y-14006722D02*
X5643444Y-13997198D01*
X5643444Y-13997198D02*
X5624396Y-13987674D01*
X5624396Y-13987674D02*
X5586301Y-13987674D01*
X5586301Y-13987674D02*
X5567253Y-13997198D01*
X5567253Y-13997198D02*
X5557729Y-14006722D01*
X5557729Y-14006722D02*
X5548206Y-14025769D01*
X5729158Y-13911484D02*
X5852967Y-13911484D01*
X5852967Y-13911484D02*
X5786301Y-13987674D01*
X5786301Y-13987674D02*
X5814872Y-13987674D01*
X5814872Y-13987674D02*
X5833920Y-13997198D01*
X5833920Y-13997198D02*
X5843444Y-14006722D01*
X5843444Y-14006722D02*
X5852967Y-14025769D01*
X5852967Y-14025769D02*
X5852967Y-14073388D01*
X5852967Y-14073388D02*
X5843444Y-14092436D01*
X5843444Y-14092436D02*
X5833920Y-14101960D01*
X5833920Y-14101960D02*
X5814872Y-14111484D01*
X5814872Y-14111484D02*
X5757729Y-14111484D01*
X5757729Y-14111484D02*
X5738682Y-14101960D01*
X5738682Y-14101960D02*
X5729158Y-14092436D01*
X5976777Y-13911484D02*
X5995825Y-13911484D01*
X5995825Y-13911484D02*
X6014872Y-13921008D01*
X6014872Y-13921008D02*
X6024396Y-13930531D01*
X6024396Y-13930531D02*
X6033920Y-13949579D01*
X6033920Y-13949579D02*
X6043444Y-13987674D01*
X6043444Y-13987674D02*
X6043444Y-14035293D01*
X6043444Y-14035293D02*
X6033920Y-14073388D01*
X6033920Y-14073388D02*
X6024396Y-14092436D01*
X6024396Y-14092436D02*
X6014872Y-14101960D01*
X6014872Y-14101960D02*
X5995825Y-14111484D01*
X5995825Y-14111484D02*
X5976777Y-14111484D01*
X5976777Y-14111484D02*
X5957729Y-14101960D01*
X5957729Y-14101960D02*
X5948206Y-14092436D01*
X5948206Y-14092436D02*
X5938682Y-14073388D01*
X5938682Y-14073388D02*
X5929158Y-14035293D01*
X5929158Y-14035293D02*
X5929158Y-13987674D01*
X5929158Y-13987674D02*
X5938682Y-13949579D01*
X5938682Y-13949579D02*
X5948206Y-13930531D01*
X5948206Y-13930531D02*
X5957729Y-13921008D01*
X5957729Y-13921008D02*
X5976777Y-13911484D01*
X6119634Y-13911484D02*
X6119634Y-13949579D01*
X6195825Y-13911484D02*
X6195825Y-13949579D01*
X6491063Y-14187674D02*
X6481539Y-14178150D01*
X6481539Y-14178150D02*
X6462491Y-14149579D01*
X6462491Y-14149579D02*
X6452968Y-14130531D01*
X6452968Y-14130531D02*
X6443444Y-14101960D01*
X6443444Y-14101960D02*
X6433920Y-14054341D01*
X6433920Y-14054341D02*
X6433920Y-14016246D01*
X6433920Y-14016246D02*
X6443444Y-13968627D01*
X6443444Y-13968627D02*
X6452968Y-13940055D01*
X6452968Y-13940055D02*
X6462491Y-13921008D01*
X6462491Y-13921008D02*
X6481539Y-13892436D01*
X6481539Y-13892436D02*
X6491063Y-13882912D01*
X6652968Y-13978150D02*
X6652968Y-14111484D01*
X6605348Y-13901960D02*
X6557729Y-14044817D01*
X6557729Y-14044817D02*
X6681539Y-14044817D01*
X6910110Y-14111484D02*
X6910110Y-13911484D01*
X6995825Y-14111484D02*
X6995825Y-14006722D01*
X6995825Y-14006722D02*
X6986301Y-13987674D01*
X6986301Y-13987674D02*
X6967253Y-13978150D01*
X6967253Y-13978150D02*
X6938682Y-13978150D01*
X6938682Y-13978150D02*
X6919634Y-13987674D01*
X6919634Y-13987674D02*
X6910110Y-13997198D01*
X7119634Y-14111484D02*
X7100587Y-14101960D01*
X7100587Y-14101960D02*
X7091063Y-14092436D01*
X7091063Y-14092436D02*
X7081539Y-14073388D01*
X7081539Y-14073388D02*
X7081539Y-14016246D01*
X7081539Y-14016246D02*
X7091063Y-13997198D01*
X7091063Y-13997198D02*
X7100587Y-13987674D01*
X7100587Y-13987674D02*
X7119634Y-13978150D01*
X7119634Y-13978150D02*
X7148206Y-13978150D01*
X7148206Y-13978150D02*
X7167253Y-13987674D01*
X7167253Y-13987674D02*
X7176777Y-13997198D01*
X7176777Y-13997198D02*
X7186301Y-14016246D01*
X7186301Y-14016246D02*
X7186301Y-14073388D01*
X7186301Y-14073388D02*
X7176777Y-14092436D01*
X7176777Y-14092436D02*
X7167253Y-14101960D01*
X7167253Y-14101960D02*
X7148206Y-14111484D01*
X7148206Y-14111484D02*
X7119634Y-14111484D01*
X7300587Y-14111484D02*
X7281539Y-14101960D01*
X7281539Y-14101960D02*
X7272015Y-14082912D01*
X7272015Y-14082912D02*
X7272015Y-13911484D01*
X7452968Y-14101960D02*
X7433920Y-14111484D01*
X7433920Y-14111484D02*
X7395825Y-14111484D01*
X7395825Y-14111484D02*
X7376777Y-14101960D01*
X7376777Y-14101960D02*
X7367253Y-14082912D01*
X7367253Y-14082912D02*
X7367253Y-14006722D01*
X7367253Y-14006722D02*
X7376777Y-13987674D01*
X7376777Y-13987674D02*
X7395825Y-13978150D01*
X7395825Y-13978150D02*
X7433920Y-13978150D01*
X7433920Y-13978150D02*
X7452968Y-13987674D01*
X7452968Y-13987674D02*
X7462491Y-14006722D01*
X7462491Y-14006722D02*
X7462491Y-14025769D01*
X7462491Y-14025769D02*
X7367253Y-14044817D01*
X7538682Y-14101960D02*
X7557730Y-14111484D01*
X7557730Y-14111484D02*
X7595825Y-14111484D01*
X7595825Y-14111484D02*
X7614872Y-14101960D01*
X7614872Y-14101960D02*
X7624396Y-14082912D01*
X7624396Y-14082912D02*
X7624396Y-14073388D01*
X7624396Y-14073388D02*
X7614872Y-14054341D01*
X7614872Y-14054341D02*
X7595825Y-14044817D01*
X7595825Y-14044817D02*
X7567253Y-14044817D01*
X7567253Y-14044817D02*
X7548206Y-14035293D01*
X7548206Y-14035293D02*
X7538682Y-14016246D01*
X7538682Y-14016246D02*
X7538682Y-14006722D01*
X7538682Y-14006722D02*
X7548206Y-13987674D01*
X7548206Y-13987674D02*
X7567253Y-13978150D01*
X7567253Y-13978150D02*
X7595825Y-13978150D01*
X7595825Y-13978150D02*
X7614872Y-13987674D01*
X7691063Y-14187674D02*
X7700587Y-14178150D01*
X7700587Y-14178150D02*
X7719634Y-14149579D01*
X7719634Y-14149579D02*
X7729158Y-14130531D01*
X7729158Y-14130531D02*
X7738682Y-14101960D01*
X7738682Y-14101960D02*
X7748206Y-14054341D01*
X7748206Y-14054341D02*
X7748206Y-14016246D01*
X7748206Y-14016246D02*
X7738682Y-13968627D01*
X7738682Y-13968627D02*
X7729158Y-13940055D01*
X7729158Y-13940055D02*
X7719634Y-13921008D01*
X7719634Y-13921008D02*
X7700587Y-13892436D01*
X7700587Y-13892436D02*
X7691063Y-13882912D01*
X2716000Y-14200000D02*
X2916000Y-14400000D01*
X2916000Y-14200000D02*
X2716000Y-14400000D01*
X2916000Y-14300000D02*
G75*
G02*
X2716000Y-14300000I-100000J0D01*
G01*
X2716000Y-14300000D02*
G75*
G02*
X2916000Y-14300000I100000J0D01*
G01*
X3157729Y-14191484D02*
X3281539Y-14191484D01*
X3281539Y-14191484D02*
X3214872Y-14267674D01*
X3214872Y-14267674D02*
X3243443Y-14267674D01*
X3243443Y-14267674D02*
X3262491Y-14277198D01*
X3262491Y-14277198D02*
X3272015Y-14286722D01*
X3272015Y-14286722D02*
X3281539Y-14305769D01*
X3281539Y-14305769D02*
X3281539Y-14353388D01*
X3281539Y-14353388D02*
X3272015Y-14372436D01*
X3272015Y-14372436D02*
X3262491Y-14381960D01*
X3262491Y-14381960D02*
X3243443Y-14391484D01*
X3243443Y-14391484D02*
X3186301Y-14391484D01*
X3186301Y-14391484D02*
X3167253Y-14381960D01*
X3167253Y-14381960D02*
X3157729Y-14372436D01*
X3367253Y-14372436D02*
X3376777Y-14381960D01*
X3376777Y-14381960D02*
X3367253Y-14391484D01*
X3367253Y-14391484D02*
X3357729Y-14381960D01*
X3357729Y-14381960D02*
X3367253Y-14372436D01*
X3367253Y-14372436D02*
X3367253Y-14391484D01*
X3500586Y-14191484D02*
X3519634Y-14191484D01*
X3519634Y-14191484D02*
X3538682Y-14201008D01*
X3538682Y-14201008D02*
X3548205Y-14210531D01*
X3548205Y-14210531D02*
X3557729Y-14229579D01*
X3557729Y-14229579D02*
X3567253Y-14267674D01*
X3567253Y-14267674D02*
X3567253Y-14315293D01*
X3567253Y-14315293D02*
X3557729Y-14353388D01*
X3557729Y-14353388D02*
X3548205Y-14372436D01*
X3548205Y-14372436D02*
X3538682Y-14381960D01*
X3538682Y-14381960D02*
X3519634Y-14391484D01*
X3519634Y-14391484D02*
X3500586Y-14391484D01*
X3500586Y-14391484D02*
X3481539Y-14381960D01*
X3481539Y-14381960D02*
X3472015Y-14372436D01*
X3472015Y-14372436D02*
X3462491Y-14353388D01*
X3462491Y-14353388D02*
X3452967Y-14315293D01*
X3452967Y-14315293D02*
X3452967Y-14267674D01*
X3452967Y-14267674D02*
X3462491Y-14229579D01*
X3462491Y-14229579D02*
X3472015Y-14210531D01*
X3472015Y-14210531D02*
X3481539Y-14201008D01*
X3481539Y-14201008D02*
X3500586Y-14191484D01*
X3691062Y-14191484D02*
X3710110Y-14191484D01*
X3710110Y-14191484D02*
X3729158Y-14201008D01*
X3729158Y-14201008D02*
X3738682Y-14210531D01*
X3738682Y-14210531D02*
X3748205Y-14229579D01*
X3748205Y-14229579D02*
X3757729Y-14267674D01*
X3757729Y-14267674D02*
X3757729Y-14315293D01*
X3757729Y-14315293D02*
X3748205Y-14353388D01*
X3748205Y-14353388D02*
X3738682Y-14372436D01*
X3738682Y-14372436D02*
X3729158Y-14381960D01*
X3729158Y-14381960D02*
X3710110Y-14391484D01*
X3710110Y-14391484D02*
X3691062Y-14391484D01*
X3691062Y-14391484D02*
X3672015Y-14381960D01*
X3672015Y-14381960D02*
X3662491Y-14372436D01*
X3662491Y-14372436D02*
X3652967Y-14353388D01*
X3652967Y-14353388D02*
X3643443Y-14315293D01*
X3643443Y-14315293D02*
X3643443Y-14267674D01*
X3643443Y-14267674D02*
X3652967Y-14229579D01*
X3652967Y-14229579D02*
X3662491Y-14210531D01*
X3662491Y-14210531D02*
X3672015Y-14201008D01*
X3672015Y-14201008D02*
X3691062Y-14191484D01*
X3881539Y-14191484D02*
X3900586Y-14191484D01*
X3900586Y-14191484D02*
X3919634Y-14201008D01*
X3919634Y-14201008D02*
X3929158Y-14210531D01*
X3929158Y-14210531D02*
X3938682Y-14229579D01*
X3938682Y-14229579D02*
X3948205Y-14267674D01*
X3948205Y-14267674D02*
X3948205Y-14315293D01*
X3948205Y-14315293D02*
X3938682Y-14353388D01*
X3938682Y-14353388D02*
X3929158Y-14372436D01*
X3929158Y-14372436D02*
X3919634Y-14381960D01*
X3919634Y-14381960D02*
X3900586Y-14391484D01*
X3900586Y-14391484D02*
X3881539Y-14391484D01*
X3881539Y-14391484D02*
X3862491Y-14381960D01*
X3862491Y-14381960D02*
X3852967Y-14372436D01*
X3852967Y-14372436D02*
X3843443Y-14353388D01*
X3843443Y-14353388D02*
X3833920Y-14315293D01*
X3833920Y-14315293D02*
X3833920Y-14267674D01*
X3833920Y-14267674D02*
X3843443Y-14229579D01*
X3843443Y-14229579D02*
X3852967Y-14210531D01*
X3852967Y-14210531D02*
X3862491Y-14201008D01*
X3862491Y-14201008D02*
X3881539Y-14191484D01*
X4033920Y-14391484D02*
X4033920Y-14258150D01*
X4033920Y-14277198D02*
X4043443Y-14267674D01*
X4043443Y-14267674D02*
X4062491Y-14258150D01*
X4062491Y-14258150D02*
X4091063Y-14258150D01*
X4091063Y-14258150D02*
X4110110Y-14267674D01*
X4110110Y-14267674D02*
X4119634Y-14286722D01*
X4119634Y-14286722D02*
X4119634Y-14391484D01*
X4119634Y-14286722D02*
X4129158Y-14267674D01*
X4129158Y-14267674D02*
X4148205Y-14258150D01*
X4148205Y-14258150D02*
X4176777Y-14258150D01*
X4176777Y-14258150D02*
X4195825Y-14267674D01*
X4195825Y-14267674D02*
X4205348Y-14286722D01*
X4205348Y-14286722D02*
X4205348Y-14391484D01*
X4300586Y-14391484D02*
X4300586Y-14258150D01*
X4300586Y-14277198D02*
X4310110Y-14267674D01*
X4310110Y-14267674D02*
X4329158Y-14258150D01*
X4329158Y-14258150D02*
X4357729Y-14258150D01*
X4357729Y-14258150D02*
X4376777Y-14267674D01*
X4376777Y-14267674D02*
X4386301Y-14286722D01*
X4386301Y-14286722D02*
X4386301Y-14391484D01*
X4386301Y-14286722D02*
X4395825Y-14267674D01*
X4395825Y-14267674D02*
X4414872Y-14258150D01*
X4414872Y-14258150D02*
X4443444Y-14258150D01*
X4443444Y-14258150D02*
X4462491Y-14267674D01*
X4462491Y-14267674D02*
X4472015Y-14286722D01*
X4472015Y-14286722D02*
X4472015Y-14391484D01*
X4862491Y-14181960D02*
X4691063Y-14439103D01*
X5119634Y-14191484D02*
X5138682Y-14191484D01*
X5138682Y-14191484D02*
X5157729Y-14201008D01*
X5157729Y-14201008D02*
X5167253Y-14210531D01*
X5167253Y-14210531D02*
X5176777Y-14229579D01*
X5176777Y-14229579D02*
X5186301Y-14267674D01*
X5186301Y-14267674D02*
X5186301Y-14315293D01*
X5186301Y-14315293D02*
X5176777Y-14353388D01*
X5176777Y-14353388D02*
X5167253Y-14372436D01*
X5167253Y-14372436D02*
X5157729Y-14381960D01*
X5157729Y-14381960D02*
X5138682Y-14391484D01*
X5138682Y-14391484D02*
X5119634Y-14391484D01*
X5119634Y-14391484D02*
X5100587Y-14381960D01*
X5100587Y-14381960D02*
X5091063Y-14372436D01*
X5091063Y-14372436D02*
X5081539Y-14353388D01*
X5081539Y-14353388D02*
X5072015Y-14315293D01*
X5072015Y-14315293D02*
X5072015Y-14267674D01*
X5072015Y-14267674D02*
X5081539Y-14229579D01*
X5081539Y-14229579D02*
X5091063Y-14210531D01*
X5091063Y-14210531D02*
X5100587Y-14201008D01*
X5100587Y-14201008D02*
X5119634Y-14191484D01*
X5272015Y-14372436D02*
X5281539Y-14381960D01*
X5281539Y-14381960D02*
X5272015Y-14391484D01*
X5272015Y-14391484D02*
X5262491Y-14381960D01*
X5262491Y-14381960D02*
X5272015Y-14372436D01*
X5272015Y-14372436D02*
X5272015Y-14391484D01*
X5472015Y-14391484D02*
X5357729Y-14391484D01*
X5414872Y-14391484D02*
X5414872Y-14191484D01*
X5414872Y-14191484D02*
X5395825Y-14220055D01*
X5395825Y-14220055D02*
X5376777Y-14239103D01*
X5376777Y-14239103D02*
X5357729Y-14248627D01*
X5662491Y-14391484D02*
X5548206Y-14391484D01*
X5605348Y-14391484D02*
X5605348Y-14191484D01*
X5605348Y-14191484D02*
X5586301Y-14220055D01*
X5586301Y-14220055D02*
X5567253Y-14239103D01*
X5567253Y-14239103D02*
X5548206Y-14248627D01*
X5776777Y-14277198D02*
X5757729Y-14267674D01*
X5757729Y-14267674D02*
X5748206Y-14258150D01*
X5748206Y-14258150D02*
X5738682Y-14239103D01*
X5738682Y-14239103D02*
X5738682Y-14229579D01*
X5738682Y-14229579D02*
X5748206Y-14210531D01*
X5748206Y-14210531D02*
X5757729Y-14201008D01*
X5757729Y-14201008D02*
X5776777Y-14191484D01*
X5776777Y-14191484D02*
X5814872Y-14191484D01*
X5814872Y-14191484D02*
X5833920Y-14201008D01*
X5833920Y-14201008D02*
X5843444Y-14210531D01*
X5843444Y-14210531D02*
X5852967Y-14229579D01*
X5852967Y-14229579D02*
X5852967Y-14239103D01*
X5852967Y-14239103D02*
X5843444Y-14258150D01*
X5843444Y-14258150D02*
X5833920Y-14267674D01*
X5833920Y-14267674D02*
X5814872Y-14277198D01*
X5814872Y-14277198D02*
X5776777Y-14277198D01*
X5776777Y-14277198D02*
X5757729Y-14286722D01*
X5757729Y-14286722D02*
X5748206Y-14296246D01*
X5748206Y-14296246D02*
X5738682Y-14315293D01*
X5738682Y-14315293D02*
X5738682Y-14353388D01*
X5738682Y-14353388D02*
X5748206Y-14372436D01*
X5748206Y-14372436D02*
X5757729Y-14381960D01*
X5757729Y-14381960D02*
X5776777Y-14391484D01*
X5776777Y-14391484D02*
X5814872Y-14391484D01*
X5814872Y-14391484D02*
X5833920Y-14381960D01*
X5833920Y-14381960D02*
X5843444Y-14372436D01*
X5843444Y-14372436D02*
X5852967Y-14353388D01*
X5852967Y-14353388D02*
X5852967Y-14315293D01*
X5852967Y-14315293D02*
X5843444Y-14296246D01*
X5843444Y-14296246D02*
X5833920Y-14286722D01*
X5833920Y-14286722D02*
X5814872Y-14277198D01*
X6043444Y-14391484D02*
X5929158Y-14391484D01*
X5986301Y-14391484D02*
X5986301Y-14191484D01*
X5986301Y-14191484D02*
X5967253Y-14220055D01*
X5967253Y-14220055D02*
X5948206Y-14239103D01*
X5948206Y-14239103D02*
X5929158Y-14248627D01*
X6119634Y-14191484D02*
X6119634Y-14229579D01*
X6195825Y-14191484D02*
X6195825Y-14229579D01*
X6491063Y-14467674D02*
X6481539Y-14458150D01*
X6481539Y-14458150D02*
X6462491Y-14429579D01*
X6462491Y-14429579D02*
X6452968Y-14410531D01*
X6452968Y-14410531D02*
X6443444Y-14381960D01*
X6443444Y-14381960D02*
X6433920Y-14334341D01*
X6433920Y-14334341D02*
X6433920Y-14296246D01*
X6433920Y-14296246D02*
X6443444Y-14248627D01*
X6443444Y-14248627D02*
X6452968Y-14220055D01*
X6452968Y-14220055D02*
X6462491Y-14201008D01*
X6462491Y-14201008D02*
X6481539Y-14172436D01*
X6481539Y-14172436D02*
X6491063Y-14162912D01*
X6557729Y-14210531D02*
X6567253Y-14201008D01*
X6567253Y-14201008D02*
X6586301Y-14191484D01*
X6586301Y-14191484D02*
X6633920Y-14191484D01*
X6633920Y-14191484D02*
X6652968Y-14201008D01*
X6652968Y-14201008D02*
X6662491Y-14210531D01*
X6662491Y-14210531D02*
X6672015Y-14229579D01*
X6672015Y-14229579D02*
X6672015Y-14248627D01*
X6672015Y-14248627D02*
X6662491Y-14277198D01*
X6662491Y-14277198D02*
X6548206Y-14391484D01*
X6548206Y-14391484D02*
X6672015Y-14391484D01*
X6910110Y-14391484D02*
X6910110Y-14191484D01*
X6995825Y-14391484D02*
X6995825Y-14286722D01*
X6995825Y-14286722D02*
X6986301Y-14267674D01*
X6986301Y-14267674D02*
X6967253Y-14258150D01*
X6967253Y-14258150D02*
X6938682Y-14258150D01*
X6938682Y-14258150D02*
X6919634Y-14267674D01*
X6919634Y-14267674D02*
X6910110Y-14277198D01*
X7119634Y-14391484D02*
X7100587Y-14381960D01*
X7100587Y-14381960D02*
X7091063Y-14372436D01*
X7091063Y-14372436D02*
X7081539Y-14353388D01*
X7081539Y-14353388D02*
X7081539Y-14296246D01*
X7081539Y-14296246D02*
X7091063Y-14277198D01*
X7091063Y-14277198D02*
X7100587Y-14267674D01*
X7100587Y-14267674D02*
X7119634Y-14258150D01*
X7119634Y-14258150D02*
X7148206Y-14258150D01*
X7148206Y-14258150D02*
X7167253Y-14267674D01*
X7167253Y-14267674D02*
X7176777Y-14277198D01*
X7176777Y-14277198D02*
X7186301Y-14296246D01*
X7186301Y-14296246D02*
X7186301Y-14353388D01*
X7186301Y-14353388D02*
X7176777Y-14372436D01*
X7176777Y-14372436D02*
X7167253Y-14381960D01*
X7167253Y-14381960D02*
X7148206Y-14391484D01*
X7148206Y-14391484D02*
X7119634Y-14391484D01*
X7300587Y-14391484D02*
X7281539Y-14381960D01*
X7281539Y-14381960D02*
X7272015Y-14362912D01*
X7272015Y-14362912D02*
X7272015Y-14191484D01*
X7452968Y-14381960D02*
X7433920Y-14391484D01*
X7433920Y-14391484D02*
X7395825Y-14391484D01*
X7395825Y-14391484D02*
X7376777Y-14381960D01*
X7376777Y-14381960D02*
X7367253Y-14362912D01*
X7367253Y-14362912D02*
X7367253Y-14286722D01*
X7367253Y-14286722D02*
X7376777Y-14267674D01*
X7376777Y-14267674D02*
X7395825Y-14258150D01*
X7395825Y-14258150D02*
X7433920Y-14258150D01*
X7433920Y-14258150D02*
X7452968Y-14267674D01*
X7452968Y-14267674D02*
X7462491Y-14286722D01*
X7462491Y-14286722D02*
X7462491Y-14305769D01*
X7462491Y-14305769D02*
X7367253Y-14324817D01*
X7538682Y-14381960D02*
X7557730Y-14391484D01*
X7557730Y-14391484D02*
X7595825Y-14391484D01*
X7595825Y-14391484D02*
X7614872Y-14381960D01*
X7614872Y-14381960D02*
X7624396Y-14362912D01*
X7624396Y-14362912D02*
X7624396Y-14353388D01*
X7624396Y-14353388D02*
X7614872Y-14334341D01*
X7614872Y-14334341D02*
X7595825Y-14324817D01*
X7595825Y-14324817D02*
X7567253Y-14324817D01*
X7567253Y-14324817D02*
X7548206Y-14315293D01*
X7548206Y-14315293D02*
X7538682Y-14296246D01*
X7538682Y-14296246D02*
X7538682Y-14286722D01*
X7538682Y-14286722D02*
X7548206Y-14267674D01*
X7548206Y-14267674D02*
X7567253Y-14258150D01*
X7567253Y-14258150D02*
X7595825Y-14258150D01*
X7595825Y-14258150D02*
X7614872Y-14267674D01*
X7691063Y-14467674D02*
X7700587Y-14458150D01*
X7700587Y-14458150D02*
X7719634Y-14429579D01*
X7719634Y-14429579D02*
X7729158Y-14410531D01*
X7729158Y-14410531D02*
X7738682Y-14381960D01*
X7738682Y-14381960D02*
X7748206Y-14334341D01*
X7748206Y-14334341D02*
X7748206Y-14296246D01*
X7748206Y-14296246D02*
X7738682Y-14248627D01*
X7738682Y-14248627D02*
X7729158Y-14220055D01*
X7729158Y-14220055D02*
X7719634Y-14201008D01*
X7719634Y-14201008D02*
X7700587Y-14172436D01*
X7700587Y-14172436D02*
X7691063Y-14162912D01*
M02*
