%TF.GenerationSoftware,KiCad,Pcbnew,8.0.2*%
%TF.CreationDate,2024-09-17T18:28:23+03:00*%
%TF.ProjectId,ad4080_evb_experimenter,61643430-3830-45f6-9576-625f65787065,rev?*%
%TF.SameCoordinates,Original*%
%TF.FileFunction,Drillmap*%
%TF.FilePolarity,Positive*%
%FSLAX45Y45*%
G04 Gerber Fmt 4.5, Leading zero omitted, Abs format (unit mm)*
G04 Created by KiCad (PCBNEW 8.0.2) date 2024-09-17 18:28:23*
%MOMM*%
%LPD*%
G01*
G04 APERTURE LIST*
%ADD10C,0.100000*%
%ADD11C,0.200000*%
G04 APERTURE END LIST*
D10*
X2921000Y-4452100D02*
X13360400Y-4452100D01*
X13360400Y-12319000D01*
X2921000Y-12319000D01*
X2921000Y-4452100D01*
D11*
X3176777Y-12635484D02*
X3176777Y-12435484D01*
X3176777Y-12435484D02*
X3224396Y-12435484D01*
X3224396Y-12435484D02*
X3252967Y-12445008D01*
X3252967Y-12445008D02*
X3272015Y-12464055D01*
X3272015Y-12464055D02*
X3281539Y-12483103D01*
X3281539Y-12483103D02*
X3291062Y-12521198D01*
X3291062Y-12521198D02*
X3291062Y-12549769D01*
X3291062Y-12549769D02*
X3281539Y-12587865D01*
X3281539Y-12587865D02*
X3272015Y-12606912D01*
X3272015Y-12606912D02*
X3252967Y-12625960D01*
X3252967Y-12625960D02*
X3224396Y-12635484D01*
X3224396Y-12635484D02*
X3176777Y-12635484D01*
X3376777Y-12635484D02*
X3376777Y-12502150D01*
X3376777Y-12540246D02*
X3386301Y-12521198D01*
X3386301Y-12521198D02*
X3395824Y-12511674D01*
X3395824Y-12511674D02*
X3414872Y-12502150D01*
X3414872Y-12502150D02*
X3433920Y-12502150D01*
X3500586Y-12635484D02*
X3500586Y-12502150D01*
X3500586Y-12435484D02*
X3491062Y-12445008D01*
X3491062Y-12445008D02*
X3500586Y-12454531D01*
X3500586Y-12454531D02*
X3510110Y-12445008D01*
X3510110Y-12445008D02*
X3500586Y-12435484D01*
X3500586Y-12435484D02*
X3500586Y-12454531D01*
X3624396Y-12635484D02*
X3605348Y-12625960D01*
X3605348Y-12625960D02*
X3595824Y-12606912D01*
X3595824Y-12606912D02*
X3595824Y-12435484D01*
X3729158Y-12635484D02*
X3710110Y-12625960D01*
X3710110Y-12625960D02*
X3700586Y-12606912D01*
X3700586Y-12606912D02*
X3700586Y-12435484D01*
X3957729Y-12635484D02*
X3957729Y-12435484D01*
X3957729Y-12435484D02*
X4024396Y-12578341D01*
X4024396Y-12578341D02*
X4091062Y-12435484D01*
X4091062Y-12435484D02*
X4091062Y-12635484D01*
X4272015Y-12635484D02*
X4272015Y-12530722D01*
X4272015Y-12530722D02*
X4262491Y-12511674D01*
X4262491Y-12511674D02*
X4243444Y-12502150D01*
X4243444Y-12502150D02*
X4205348Y-12502150D01*
X4205348Y-12502150D02*
X4186301Y-12511674D01*
X4272015Y-12625960D02*
X4252967Y-12635484D01*
X4252967Y-12635484D02*
X4205348Y-12635484D01*
X4205348Y-12635484D02*
X4186301Y-12625960D01*
X4186301Y-12625960D02*
X4176777Y-12606912D01*
X4176777Y-12606912D02*
X4176777Y-12587865D01*
X4176777Y-12587865D02*
X4186301Y-12568817D01*
X4186301Y-12568817D02*
X4205348Y-12559293D01*
X4205348Y-12559293D02*
X4252967Y-12559293D01*
X4252967Y-12559293D02*
X4272015Y-12549769D01*
X4367253Y-12502150D02*
X4367253Y-12702150D01*
X4367253Y-12511674D02*
X4386301Y-12502150D01*
X4386301Y-12502150D02*
X4424396Y-12502150D01*
X4424396Y-12502150D02*
X4443444Y-12511674D01*
X4443444Y-12511674D02*
X4452967Y-12521198D01*
X4452967Y-12521198D02*
X4462491Y-12540246D01*
X4462491Y-12540246D02*
X4462491Y-12597388D01*
X4462491Y-12597388D02*
X4452967Y-12616436D01*
X4452967Y-12616436D02*
X4443444Y-12625960D01*
X4443444Y-12625960D02*
X4424396Y-12635484D01*
X4424396Y-12635484D02*
X4386301Y-12635484D01*
X4386301Y-12635484D02*
X4367253Y-12625960D01*
X4548205Y-12616436D02*
X4557729Y-12625960D01*
X4557729Y-12625960D02*
X4548205Y-12635484D01*
X4548205Y-12635484D02*
X4538682Y-12625960D01*
X4538682Y-12625960D02*
X4548205Y-12616436D01*
X4548205Y-12616436D02*
X4548205Y-12635484D01*
X4548205Y-12511674D02*
X4557729Y-12521198D01*
X4557729Y-12521198D02*
X4548205Y-12530722D01*
X4548205Y-12530722D02*
X4538682Y-12521198D01*
X4538682Y-12521198D02*
X4548205Y-12511674D01*
X4548205Y-12511674D02*
X4548205Y-12530722D01*
M02*
